ISO-10303-21;
HEADER;
/* Generated by software containing ST-Developer
 * from STEP Tools, Inc. (www.steptools.com) 
 */

FILE_DESCRIPTION(
/* description */ (''),
/* implementation_level */ '2;1');

FILE_NAME(
/* name */ 'ModularNavigator_Enclosure_v1.step',
/* time_stamp */ '2026-06-12T20:13:20+05:30',
/* author */ (''),
/* organization */ (''),
/* preprocessor_version */ 'ST-DEVELOPER v20.1',
/* originating_system */ 'Autodesk Translation Framework v15.8.0.0',
/* authorisation */ '');

FILE_SCHEMA (('AUTOMOTIVE_DESIGN { 1 0 10303 214 3 1 1 }'));
ENDSEC;

DATA;
#10=MECHANICAL_DESIGN_GEOMETRIC_PRESENTATION_REPRESENTATION('',(#13),#1498);
#11=SHAPE_REPRESENTATION_RELATIONSHIP('SRR','None',#1505,#12);
#12=ADVANCED_BREP_SHAPE_REPRESENTATION('',(#14),#1497);
#13=STYLED_ITEM('',(#1515),#14);
#14=MANIFOLD_SOLID_BREP('Body23',#754);
#15=ELLIPSE('',#805,2.82842712474619,2.);
#16=ELLIPSE('',#806,2.82842712474619,2.);
#17=ELLIPSE('',#808,2.82842712474619,2.);
#18=ELLIPSE('',#812,2.8284271247462,2.);
#19=ELLIPSE('',#813,2.8284271247462,2.);
#20=B_SPLINE_CURVE_WITH_KNOTS('',3,(#1027,#1028,#1029,#1030,#1031),
 .UNSPECIFIED.,.F.,.F.,(4,1,4),(0.,0.0606903806638255,0.108757180068662),
 .UNSPECIFIED.);
#21=B_SPLINE_CURVE_WITH_KNOTS('',3,(#1035,#1036,#1037,#1038,#1039),
 .UNSPECIFIED.,.F.,.F.,(4,1,4),(-0.108757180068662,-0.0606903806638255,
0.),.UNSPECIFIED.);
#22=B_SPLINE_CURVE_WITH_KNOTS('',3,(#1052,#1053,#1054,#1055,#1056),
 .UNSPECIFIED.,.F.,.F.,(4,1,4),(0.,0.0392187682894292,0.0734111016263777),
 .UNSPECIFIED.);
#23=B_SPLINE_CURVE_WITH_KNOTS('',3,(#1058,#1059,#1060,#1061,#1062),
 .UNSPECIFIED.,.F.,.F.,(4,1,4),(-0.0734111016263777,-0.0392187682894292,
0.),.UNSPECIFIED.);
#24=B_SPLINE_CURVE_WITH_KNOTS('',3,(#1081,#1082,#1083,#1084,#1085),
 .UNSPECIFIED.,.F.,.F.,(4,1,4),(0.,0.0379926954897271,0.0776257404856897),
 .UNSPECIFIED.);
#25=B_SPLINE_CURVE_WITH_KNOTS('',3,(#1087,#1088,#1089,#1090,#1091),
 .UNSPECIFIED.,.F.,.F.,(4,1,4),(-0.0776257404856897,-0.0379926954897271,
0.),.UNSPECIFIED.);
#26=B_SPLINE_CURVE_WITH_KNOTS('',3,(#1104,#1105,#1106,#1107,#1108),
 .UNSPECIFIED.,.F.,.F.,(4,1,4),(0.,0.0468203154153423,0.106320036211789),
 .UNSPECIFIED.);
#27=B_SPLINE_CURVE_WITH_KNOTS('',3,(#1110,#1111,#1112,#1113,#1114),
 .UNSPECIFIED.,.F.,.F.,(4,1,4),(-0.106320036211789,-0.0468203154153423,
0.),.UNSPECIFIED.);
#28=B_SPLINE_CURVE_WITH_KNOTS('',3,(#1133,#1134,#1135,#1136,#1137),
 .UNSPECIFIED.,.F.,.F.,(4,1,4),(0.,0.0689414858548749,0.125374065594257),
 .UNSPECIFIED.);
#29=B_SPLINE_CURVE_WITH_KNOTS('',3,(#1139,#1140,#1141,#1142,#1143),
 .UNSPECIFIED.,.F.,.F.,(4,1,4),(-0.125374065594257,-0.0689414858548749,
0.),.UNSPECIFIED.);
#30=B_SPLINE_CURVE_WITH_KNOTS('',3,(#1174,#1175,#1176,#1177,#1178),
 .UNSPECIFIED.,.F.,.F.,(4,1,4),(0.,0.0360872125308362,0.0608640187952906),
 .UNSPECIFIED.);
#31=B_SPLINE_CURVE_WITH_KNOTS('',3,(#1180,#1181,#1182,#1183,#1184),
 .UNSPECIFIED.,.F.,.F.,(4,1,4),(-0.0608640187952906,-0.0360872125308362,
0.),.UNSPECIFIED.);
#32=B_SPLINE_CURVE_WITH_KNOTS('',3,(#1197,#1198,#1199,#1200,#1201),
 .UNSPECIFIED.,.F.,.F.,(4,1,4),(0.,0.0255885099842357,0.064104929014591),
 .UNSPECIFIED.);
#33=B_SPLINE_CURVE_WITH_KNOTS('',3,(#1203,#1204,#1205,#1206,#1207),
 .UNSPECIFIED.,.F.,.F.,(4,1,4),(-0.064104929014591,-0.0255885099842357,
0.),.UNSPECIFIED.);
#34=B_SPLINE_CURVE_WITH_KNOTS('',3,(#1216,#1217,#1218,#1219,#1220,#1221,
#1222,#1223),.UNSPECIFIED.,.F.,.F.,(4,2,2,4),(0.52099282499064,0.55140765661171,
0.589552737928778,0.600224817961344),.UNSPECIFIED.);
#35=B_SPLINE_CURVE_WITH_KNOTS('',3,(#1227,#1228,#1229,#1230,#1231,#1232,
#1233,#1234),.UNSPECIFIED.,.F.,.F.,(4,2,2,4),(0.848056716517851,0.886697663279335,
0.92533861004082,0.93835536789354),.UNSPECIFIED.);
#36=B_SPLINE_CURVE_WITH_KNOTS('',3,(#1238,#1239,#1240,#1241,#1242,#1243,
#1244,#1245,#1246,#1247,#1248,#1249,#1250,#1251,#1252,#1253,#1254,#1255,
#1256,#1257,#1258,#1259,#1260,#1261,#1262),.UNSPECIFIED.,.F.,.F.,(4,2,2,
2,2,2,3,2,2,2,2,4),(0.457624808206783,0.48665319837914,0.531647644236389,
0.576642090093639,0.622117887440944,0.644855786114597,0.667593684788249,
0.688679594109149,0.709765503430048,0.751937322071847,0.799997019294849,
0.848056716517851),.UNSPECIFIED.);
#37=B_SPLINE_CURVE_WITH_KNOTS('',3,(#1266,#1267,#1268,#1269,#1270,#1271,
#1272,#1273),.UNSPECIFIED.,.F.,.F.,(4,2,2,4),(0.399839803424113,0.403776370816007,
0.442412362213559,0.481048353611111),.UNSPECIFIED.);
#38=B_SPLINE_CURVE_WITH_KNOTS('',3,(#1277,#1278,#1279,#1280,#1281,#1282,
#1283,#1284),.UNSPECIFIED.,.F.,.F.,(4,2,2,4),(0.669086455361506,0.673142034707046,
0.711219335017274,0.730458172041742),.UNSPECIFIED.);
#39=B_SPLINE_CURVE_WITH_KNOTS('',3,(#1285,#1286,#1287,#1288,#1289,#1290,
#1291,#1292,#1293,#1294,#1295,#1296,#1297,#1298,#1299,#1300,#1301,#1302,
#1303,#1304,#1305,#1306,#1307,#1308,#1309),.UNSPECIFIED.,.F.,.F.,(4,2,2,
2,2,3,2,2,2,2,2,4),(0.481048353611111,0.525072962048378,0.569097570485645,
0.613080344018739,0.635071730785286,0.657063117551832,0.677689724592082,
0.698316331632331,0.739569545712829,0.78616632142474,0.832763097136652,
0.868227333489688),.UNSPECIFIED.);
#40=B_SPLINE_CURVE_WITH_KNOTS('',3,(#1361,#1362,#1363,#1364,#1365,#1366,
#1367,#1368,#1369,#1370,#1371,#1372,#1373,#1374,#1375,#1376),
 .UNSPECIFIED.,.F.,.F.,(4,2,2,2,2,2,2,4),(0.413655406516128,0.451308052189863,
0.490093617188825,0.538994846689812,0.587896076190799,0.630703073541446,
0.652106572216769,0.673510070892092),.UNSPECIFIED.);
#41=B_SPLINE_CURVE_WITH_KNOTS('',3,(#1378,#1379,#1380,#1381,#1382,#1383,
#1384,#1385,#1386,#1387,#1388,#1389,#1390,#1391,#1392,#1393,#1394,#1395,
#1396,#1397,#1398,#1399,#1400,#1401,#1402,#1403,#1404),.UNSPECIFIED.,.F.,
 .F.,(4,2,2,2,3,2,2,2,2,2,2,2,4),(0.582976740051166,0.592094443818779,0.635473513268123,
0.657163047992795,0.678852582717467,0.700542117442139,0.722231652166811,
0.765610721616155,0.815179080087213,0.86474743855827,0.903646118871488,
0.942544799184707,0.944383570731724),.UNSPECIFIED.);
#42=B_SPLINE_CURVE_WITH_KNOTS('',3,(#1405,#1406,#1407,#1408,#1409,#1410,
#1411,#1412,#1413,#1414),.UNSPECIFIED.,.F.,.F.,(4,2,2,2,4),(0.673510070892092,
0.694913569567416,0.716317068242739,0.759124065593386,0.763893856556143),
 .UNSPECIFIED.);
#43=B_SPLINE_CURVE_WITH_KNOTS('',3,(#1425,#1426,#1427,#1428,#1429,#1430,
#1431,#1432,#1433,#1434,#1435,#1436,#1437,#1438,#1439,#1440,#1441,#1442,
#1443,#1444,#1445,#1446,#1447),.UNSPECIFIED.,.F.,.F.,(4,2,2,2,2,2,2,3,2,
2,4),(0.417169274413743,0.429274488791161,0.467019899388806,0.509334551739288,
0.55164920408977,0.59112246671213,0.61085909802331,0.630595729334491,0.650332360645671,
0.670068991956851,0.701840287119318),.UNSPECIFIED.);
#44=B_SPLINE_CURVE_WITH_KNOTS('',3,(#1450,#1451,#1452,#1453,#1454,#1455,
#1456,#1457,#1458,#1459),.UNSPECIFIED.,.F.,.F.,(4,2,2,2,4),(0.547605965030511,
0.561642068917003,0.601794124401743,0.621870152144113,0.641946179886483),
 .UNSPECIFIED.);
#45=B_SPLINE_CURVE_WITH_KNOTS('',3,(#1462,#1463,#1464,#1465,#1466,#1467,
#1468,#1469,#1470,#1471,#1472,#1473,#1474,#1475,#1476,#1477),
 .UNSPECIFIED.,.F.,.F.,(4,2,2,2,2,2,2,4),(0.641946179886483,0.662967925836928,
0.683989671787372,0.726033163688262,0.768479819814105,0.810926475939947,
0.849226549145221,0.876076082290893),.UNSPECIFIED.);
#46=B_SPLINE_SURFACE_WITH_KNOTS('',3,1,((#1015,#1016),(#1017,#1018),(#1019,
#1020),(#1021,#1022),(#1023,#1024)),.UNSPECIFIED.,.F.,.F.,.F.,(4,1,4),(2,
2),(-0.108757180068662,-0.0606903806638255,0.),(0.,0.0999999999999996),
 .UNSPECIFIED.);
#47=B_SPLINE_SURFACE_WITH_KNOTS('',3,1,((#1041,#1042),(#1043,#1044),(#1045,
#1046),(#1047,#1048),(#1049,#1050)),.UNSPECIFIED.,.F.,.F.,.F.,(4,1,4),(2,
2),(-0.0734111016263777,-0.0392187682894292,0.),(0.,0.0999999999999996),
 .UNSPECIFIED.);
#48=B_SPLINE_SURFACE_WITH_KNOTS('',3,1,((#1070,#1071),(#1072,#1073),(#1074,
#1075),(#1076,#1077),(#1078,#1079)),.UNSPECIFIED.,.F.,.F.,.F.,(4,1,4),(2,
2),(-0.0776257404856897,-0.0379926954897271,0.),(0.,0.0999999999999996),
 .UNSPECIFIED.);
#49=B_SPLINE_SURFACE_WITH_KNOTS('',3,1,((#1093,#1094),(#1095,#1096),(#1097,
#1098),(#1099,#1100),(#1101,#1102)),.UNSPECIFIED.,.F.,.F.,.F.,(4,1,4),(2,
2),(-0.106320036211789,-0.0468203154153423,0.),(0.,0.0999999999999996),
 .UNSPECIFIED.);
#50=B_SPLINE_SURFACE_WITH_KNOTS('',3,1,((#1122,#1123),(#1124,#1125),(#1126,
#1127),(#1128,#1129),(#1130,#1131)),.UNSPECIFIED.,.F.,.F.,.F.,(4,1,4),(2,
2),(-0.125374065594257,-0.0689414858548749,0.),(0.,0.0999999999999996),
 .UNSPECIFIED.);
#51=B_SPLINE_SURFACE_WITH_KNOTS('',3,1,((#1163,#1164),(#1165,#1166),(#1167,
#1168),(#1169,#1170),(#1171,#1172)),.UNSPECIFIED.,.F.,.F.,.F.,(4,1,4),(2,
2),(-0.0608640187952906,-0.0360872125308362,0.),(0.,0.0999999999999996),
 .UNSPECIFIED.);
#52=B_SPLINE_SURFACE_WITH_KNOTS('',3,1,((#1186,#1187),(#1188,#1189),(#1190,
#1191),(#1192,#1193),(#1194,#1195)),.UNSPECIFIED.,.F.,.F.,.F.,(4,1,4),(2,
2),(-0.064104929014591,-0.0255885099842357,0.),(0.,0.0999999999999996),
 .UNSPECIFIED.);
#53=FACE_BOUND('',#129,.T.);
#54=FACE_BOUND('',#130,.T.);
#55=FACE_BOUND('',#131,.T.);
#56=FACE_BOUND('',#132,.T.);
#57=FACE_BOUND('',#150,.T.);
#58=FACE_BOUND('',#151,.T.);
#59=FACE_BOUND('',#152,.T.);
#60=FACE_BOUND('',#153,.T.);
#61=FACE_BOUND('',#154,.T.);
#62=FACE_BOUND('',#172,.T.);
#63=FACE_BOUND('',#173,.T.);
#64=FACE_BOUND('',#174,.T.);
#65=PLANE('',#771);
#66=PLANE('',#775);
#67=PLANE('',#776);
#68=PLANE('',#779);
#69=PLANE('',#780);
#70=PLANE('',#781);
#71=PLANE('',#782);
#72=PLANE('',#783);
#73=PLANE('',#784);
#74=PLANE('',#785);
#75=PLANE('',#792);
#76=PLANE('',#795);
#77=PLANE('',#796);
#78=PLANE('',#797);
#79=PLANE('',#798);
#80=PLANE('',#799);
#81=PLANE('',#800);
#82=PLANE('',#801);
#83=PLANE('',#802);
#84=PLANE('',#819);
#85=FACE_OUTER_BOUND('',#124,.T.);
#86=FACE_OUTER_BOUND('',#125,.T.);
#87=FACE_OUTER_BOUND('',#126,.T.);
#88=FACE_OUTER_BOUND('',#127,.T.);
#89=FACE_OUTER_BOUND('',#128,.T.);
#90=FACE_OUTER_BOUND('',#133,.T.);
#91=FACE_OUTER_BOUND('',#134,.T.);
#92=FACE_OUTER_BOUND('',#135,.T.);
#93=FACE_OUTER_BOUND('',#136,.T.);
#94=FACE_OUTER_BOUND('',#137,.T.);
#95=FACE_OUTER_BOUND('',#138,.T.);
#96=FACE_OUTER_BOUND('',#139,.T.);
#97=FACE_OUTER_BOUND('',#140,.T.);
#98=FACE_OUTER_BOUND('',#141,.T.);
#99=FACE_OUTER_BOUND('',#142,.T.);
#100=FACE_OUTER_BOUND('',#143,.T.);
#101=FACE_OUTER_BOUND('',#144,.T.);
#102=FACE_OUTER_BOUND('',#145,.T.);
#103=FACE_OUTER_BOUND('',#146,.T.);
#104=FACE_OUTER_BOUND('',#147,.T.);
#105=FACE_OUTER_BOUND('',#148,.T.);
#106=FACE_OUTER_BOUND('',#149,.T.);
#107=FACE_OUTER_BOUND('',#155,.T.);
#108=FACE_OUTER_BOUND('',#156,.T.);
#109=FACE_OUTER_BOUND('',#157,.T.);
#110=FACE_OUTER_BOUND('',#158,.T.);
#111=FACE_OUTER_BOUND('',#159,.T.);
#112=FACE_OUTER_BOUND('',#160,.T.);
#113=FACE_OUTER_BOUND('',#161,.T.);
#114=FACE_OUTER_BOUND('',#162,.T.);
#115=FACE_OUTER_BOUND('',#163,.T.);
#116=FACE_OUTER_BOUND('',#164,.T.);
#117=FACE_OUTER_BOUND('',#165,.T.);
#118=FACE_OUTER_BOUND('',#166,.T.);
#119=FACE_OUTER_BOUND('',#167,.T.);
#120=FACE_OUTER_BOUND('',#168,.T.);
#121=FACE_OUTER_BOUND('',#169,.T.);
#122=FACE_OUTER_BOUND('',#170,.T.);
#123=FACE_OUTER_BOUND('',#171,.T.);
#124=EDGE_LOOP('',(#489,#490,#491,#492));
#125=EDGE_LOOP('',(#493));
#126=EDGE_LOOP('',(#494,#495,#496,#497));
#127=EDGE_LOOP('',(#498));
#128=EDGE_LOOP('',(#499,#500,#501,#502));
#129=EDGE_LOOP('',(#503));
#130=EDGE_LOOP('',(#504));
#131=EDGE_LOOP('',(#505));
#132=EDGE_LOOP('',(#506));
#133=EDGE_LOOP('',(#507,#508,#509,#510));
#134=EDGE_LOOP('',(#511,#512,#513,#514));
#135=EDGE_LOOP('',(#515,#516,#517,#518));
#136=EDGE_LOOP('',(#519,#520,#521,#522));
#137=EDGE_LOOP('',(#523,#524,#525,#526));
#138=EDGE_LOOP('',(#527,#528,#529,#530));
#139=EDGE_LOOP('',(#531,#532,#533,#534));
#140=EDGE_LOOP('',(#535,#536,#537,#538));
#141=EDGE_LOOP('',(#539,#540,#541,#542));
#142=EDGE_LOOP('',(#543,#544,#545,#546));
#143=EDGE_LOOP('',(#547,#548,#549,#550));
#144=EDGE_LOOP('',(#551,#552,#553,#554));
#145=EDGE_LOOP('',(#555,#556,#557,#558));
#146=EDGE_LOOP('',(#559,#560,#561,#562,#563,#564,#565,#566,#567,#568,#569,
#570,#571));
#147=EDGE_LOOP('',(#572,#573,#574,#575,#576,#577,#578));
#148=EDGE_LOOP('',(#579,#580,#581,#582,#583,#584,#585));
#149=EDGE_LOOP('',(#586,#587,#588,#589));
#150=EDGE_LOOP('',(#590));
#151=EDGE_LOOP('',(#591));
#152=EDGE_LOOP('',(#592));
#153=EDGE_LOOP('',(#593));
#154=EDGE_LOOP('',(#594,#595,#596,#597));
#155=EDGE_LOOP('',(#598,#599,#600,#601));
#156=EDGE_LOOP('',(#602,#603,#604,#605));
#157=EDGE_LOOP('',(#606,#607,#608,#609));
#158=EDGE_LOOP('',(#610,#611,#612,#613));
#159=EDGE_LOOP('',(#614,#615,#616,#617));
#160=EDGE_LOOP('',(#618,#619,#620,#621));
#161=EDGE_LOOP('',(#622,#623,#624,#625));
#162=EDGE_LOOP('',(#626,#627,#628,#629));
#163=EDGE_LOOP('',(#630,#631,#632,#633,#634,#635));
#164=EDGE_LOOP('',(#636,#637,#638,#639,#640,#641));
#165=EDGE_LOOP('',(#642,#643,#644,#645,#646,#647,#648));
#166=EDGE_LOOP('',(#649,#650,#651,#652,#653,#654,#655));
#167=EDGE_LOOP('',(#656,#657,#658,#659,#660,#661,#662,#663));
#168=EDGE_LOOP('',(#664,#665,#666,#667,#668,#669,#670,#671,#672));
#169=EDGE_LOOP('',(#673,#674,#675,#676));
#170=EDGE_LOOP('',(#677,#678,#679,#680));
#171=EDGE_LOOP('',(#681,#682,#683,#684,#685,#686,#687));
#172=EDGE_LOOP('',(#688,#689,#690,#691,#692,#693,#694,#695,#696,#697,#698,
#699,#700));
#173=EDGE_LOOP('',(#701));
#174=EDGE_LOOP('',(#702));
#175=LINE('',#992,#236);
#176=LINE('',#999,#237);
#177=LINE('',#1005,#238);
#178=LINE('',#1007,#239);
#179=LINE('',#1009,#240);
#180=LINE('',#1010,#241);
#181=LINE('',#1033,#242);
#182=LINE('',#1040,#243);
#183=LINE('',#1063,#244);
#184=LINE('',#1066,#245);
#185=LINE('',#1068,#246);
#186=LINE('',#1069,#247);
#187=LINE('',#1092,#248);
#188=LINE('',#1115,#249);
#189=LINE('',#1118,#250);
#190=LINE('',#1120,#251);
#191=LINE('',#1121,#252);
#192=LINE('',#1144,#253);
#193=LINE('',#1147,#254);
#194=LINE('',#1149,#255);
#195=LINE('',#1150,#256);
#196=LINE('',#1153,#257);
#197=LINE('',#1155,#258);
#198=LINE('',#1156,#259);
#199=LINE('',#1159,#260);
#200=LINE('',#1161,#261);
#201=LINE('',#1162,#262);
#202=LINE('',#1185,#263);
#203=LINE('',#1208,#264);
#204=LINE('',#1210,#265);
#205=LINE('',#1211,#266);
#206=LINE('',#1236,#267);
#207=LINE('',#1311,#268);
#208=LINE('',#1316,#269);
#209=LINE('',#1318,#270);
#210=LINE('',#1320,#271);
#211=LINE('',#1321,#272);
#212=LINE('',#1328,#273);
#213=LINE('',#1330,#274);
#214=LINE('',#1332,#275);
#215=LINE('',#1333,#276);
#216=LINE('',#1335,#277);
#217=LINE('',#1336,#278);
#218=LINE('',#1338,#279);
#219=LINE('',#1340,#280);
#220=LINE('',#1345,#281);
#221=LINE('',#1346,#282);
#222=LINE('',#1347,#283);
#223=LINE('',#1350,#284);
#224=LINE('',#1351,#285);
#225=LINE('',#1354,#286);
#226=LINE('',#1355,#287);
#227=LINE('',#1357,#288);
#228=LINE('',#1415,#289);
#229=LINE('',#1419,#290);
#230=LINE('',#1424,#291);
#231=LINE('',#1478,#292);
#232=LINE('',#1482,#293);
#233=LINE('',#1485,#294);
#234=LINE('',#1489,#295);
#235=LINE('',#1493,#296);
#236=VECTOR('',#826,0.999999999999996);
#237=VECTOR('',#835,0.999999999999996);
#238=VECTOR('',#842,10.);
#239=VECTOR('',#843,10.);
#240=VECTOR('',#844,10.);
#241=VECTOR('',#845,10.);
#242=VECTOR('',#850,10.);
#243=VECTOR('',#851,10.);
#244=VECTOR('',#852,10.);
#245=VECTOR('',#855,10.);
#246=VECTOR('',#856,10.);
#247=VECTOR('',#857,10.);
#248=VECTOR('',#858,10.);
#249=VECTOR('',#859,10.);
#250=VECTOR('',#862,10.);
#251=VECTOR('',#863,10.);
#252=VECTOR('',#864,10.);
#253=VECTOR('',#865,10.);
#254=VECTOR('',#868,10.);
#255=VECTOR('',#869,10.);
#256=VECTOR('',#870,10.);
#257=VECTOR('',#873,10.);
#258=VECTOR('',#874,10.);
#259=VECTOR('',#875,10.);
#260=VECTOR('',#878,10.);
#261=VECTOR('',#879,10.);
#262=VECTOR('',#880,10.);
#263=VECTOR('',#881,10.);
#264=VECTOR('',#882,10.);
#265=VECTOR('',#885,10.);
#266=VECTOR('',#886,10.);
#267=VECTOR('',#893,1.);
#268=VECTOR('',#900,1.);
#269=VECTOR('',#905,10.);
#270=VECTOR('',#906,10.);
#271=VECTOR('',#907,10.);
#272=VECTOR('',#908,10.);
#273=VECTOR('',#913,10.);
#274=VECTOR('',#914,10.);
#275=VECTOR('',#915,10.);
#276=VECTOR('',#916,10.);
#277=VECTOR('',#919,10.);
#278=VECTOR('',#920,10.);
#279=VECTOR('',#923,10.);
#280=VECTOR('',#926,10.);
#281=VECTOR('',#931,10.);
#282=VECTOR('',#932,10.);
#283=VECTOR('',#933,10.);
#284=VECTOR('',#936,10.);
#285=VECTOR('',#937,10.);
#286=VECTOR('',#940,10.);
#287=VECTOR('',#941,10.);
#288=VECTOR('',#944,10.);
#289=VECTOR('',#947,0.999999999999996);
#290=VECTOR('',#954,10.);
#291=VECTOR('',#959,10.);
#292=VECTOR('',#964,0.999999999999996);
#293=VECTOR('',#969,10.);
#294=VECTOR('',#974,10.);
#295=VECTOR('',#979,8.5);
#296=VECTOR('',#984,8.5);
#297=CIRCLE('',#769,0.999999999999996);
#298=CIRCLE('',#770,0.999999999999996);
#299=CIRCLE('',#773,0.999999999999996);
#300=CIRCLE('',#774,0.999999999999996);
#301=CIRCLE('',#777,8.5);
#302=CIRCLE('',#778,8.5);
#303=CIRCLE('',#787,1.);
#304=CIRCLE('',#788,1.);
#305=CIRCLE('',#790,1.);
#306=CIRCLE('',#791,1.);
#307=CIRCLE('',#793,0.999999999999996);
#308=CIRCLE('',#794,0.999999999999996);
#309=CIRCLE('',#810,0.999999999999996);
#310=CIRCLE('',#816,8.5);
#311=CIRCLE('',#818,8.5);
#312=VERTEX_POINT('',#989);
#313=VERTEX_POINT('',#991);
#314=VERTEX_POINT('',#996);
#315=VERTEX_POINT('',#998);
#316=VERTEX_POINT('',#1003);
#317=VERTEX_POINT('',#1004);
#318=VERTEX_POINT('',#1006);
#319=VERTEX_POINT('',#1008);
#320=VERTEX_POINT('',#1011);
#321=VERTEX_POINT('',#1013);
#322=VERTEX_POINT('',#1025);
#323=VERTEX_POINT('',#1026);
#324=VERTEX_POINT('',#1032);
#325=VERTEX_POINT('',#1034);
#326=VERTEX_POINT('',#1051);
#327=VERTEX_POINT('',#1057);
#328=VERTEX_POINT('',#1065);
#329=VERTEX_POINT('',#1067);
#330=VERTEX_POINT('',#1080);
#331=VERTEX_POINT('',#1086);
#332=VERTEX_POINT('',#1103);
#333=VERTEX_POINT('',#1109);
#334=VERTEX_POINT('',#1117);
#335=VERTEX_POINT('',#1119);
#336=VERTEX_POINT('',#1132);
#337=VERTEX_POINT('',#1138);
#338=VERTEX_POINT('',#1146);
#339=VERTEX_POINT('',#1148);
#340=VERTEX_POINT('',#1152);
#341=VERTEX_POINT('',#1154);
#342=VERTEX_POINT('',#1158);
#343=VERTEX_POINT('',#1160);
#344=VERTEX_POINT('',#1173);
#345=VERTEX_POINT('',#1179);
#346=VERTEX_POINT('',#1196);
#347=VERTEX_POINT('',#1202);
#348=VERTEX_POINT('',#1214);
#349=VERTEX_POINT('',#1215);
#350=VERTEX_POINT('',#1224);
#351=VERTEX_POINT('',#1226);
#352=VERTEX_POINT('',#1235);
#353=VERTEX_POINT('',#1264);
#354=VERTEX_POINT('',#1265);
#355=VERTEX_POINT('',#1274);
#356=VERTEX_POINT('',#1276);
#357=VERTEX_POINT('',#1310);
#358=VERTEX_POINT('',#1314);
#359=VERTEX_POINT('',#1315);
#360=VERTEX_POINT('',#1317);
#361=VERTEX_POINT('',#1319);
#362=VERTEX_POINT('',#1322);
#363=VERTEX_POINT('',#1324);
#364=VERTEX_POINT('',#1326);
#365=VERTEX_POINT('',#1327);
#366=VERTEX_POINT('',#1329);
#367=VERTEX_POINT('',#1331);
#368=VERTEX_POINT('',#1343);
#369=VERTEX_POINT('',#1344);
#370=VERTEX_POINT('',#1349);
#371=VERTEX_POINT('',#1353);
#372=VERTEX_POINT('',#1359);
#373=VERTEX_POINT('',#1360);
#374=VERTEX_POINT('',#1377);
#375=VERTEX_POINT('',#1421);
#376=VERTEX_POINT('',#1423);
#377=VERTEX_POINT('',#1449);
#378=VERTEX_POINT('',#1460);
#379=VERTEX_POINT('',#1480);
#380=VERTEX_POINT('',#1487);
#381=VERTEX_POINT('',#1491);
#382=EDGE_CURVE('',#312,#312,#297,.T.);
#383=EDGE_CURVE('',#312,#313,#175,.T.);
#384=EDGE_CURVE('',#313,#313,#298,.T.);
#385=EDGE_CURVE('',#314,#314,#299,.T.);
#386=EDGE_CURVE('',#314,#315,#176,.T.);
#387=EDGE_CURVE('',#315,#315,#300,.T.);
#388=EDGE_CURVE('',#316,#317,#177,.T.);
#389=EDGE_CURVE('',#317,#318,#178,.T.);
#390=EDGE_CURVE('',#318,#319,#179,.T.);
#391=EDGE_CURVE('',#319,#316,#180,.T.);
#392=EDGE_CURVE('',#320,#320,#301,.T.);
#393=EDGE_CURVE('',#321,#321,#302,.T.);
#394=EDGE_CURVE('',#322,#323,#20,.T.);
#395=EDGE_CURVE('',#322,#324,#181,.T.);
#396=EDGE_CURVE('',#325,#324,#21,.T.);
#397=EDGE_CURVE('',#323,#325,#182,.T.);
#398=EDGE_CURVE('',#323,#326,#22,.T.);
#399=EDGE_CURVE('',#327,#325,#23,.T.);
#400=EDGE_CURVE('',#326,#327,#183,.T.);
#401=EDGE_CURVE('',#326,#328,#184,.T.);
#402=EDGE_CURVE('',#329,#327,#185,.T.);
#403=EDGE_CURVE('',#328,#329,#186,.T.);
#404=EDGE_CURVE('',#328,#330,#24,.T.);
#405=EDGE_CURVE('',#331,#329,#25,.T.);
#406=EDGE_CURVE('',#330,#331,#187,.T.);
#407=EDGE_CURVE('',#330,#332,#26,.T.);
#408=EDGE_CURVE('',#333,#331,#27,.T.);
#409=EDGE_CURVE('',#332,#333,#188,.T.);
#410=EDGE_CURVE('',#332,#334,#189,.T.);
#411=EDGE_CURVE('',#335,#333,#190,.T.);
#412=EDGE_CURVE('',#334,#335,#191,.T.);
#413=EDGE_CURVE('',#334,#336,#28,.T.);
#414=EDGE_CURVE('',#337,#335,#29,.T.);
#415=EDGE_CURVE('',#336,#337,#192,.T.);
#416=EDGE_CURVE('',#336,#338,#193,.T.);
#417=EDGE_CURVE('',#339,#337,#194,.T.);
#418=EDGE_CURVE('',#338,#339,#195,.T.);
#419=EDGE_CURVE('',#338,#340,#196,.T.);
#420=EDGE_CURVE('',#341,#339,#197,.T.);
#421=EDGE_CURVE('',#340,#341,#198,.T.);
#422=EDGE_CURVE('',#340,#342,#199,.T.);
#423=EDGE_CURVE('',#343,#341,#200,.T.);
#424=EDGE_CURVE('',#342,#343,#201,.T.);
#425=EDGE_CURVE('',#342,#344,#30,.T.);
#426=EDGE_CURVE('',#345,#343,#31,.T.);
#427=EDGE_CURVE('',#344,#345,#202,.T.);
#428=EDGE_CURVE('',#344,#346,#32,.T.);
#429=EDGE_CURVE('',#347,#345,#33,.T.);
#430=EDGE_CURVE('',#346,#347,#203,.T.);
#431=EDGE_CURVE('',#346,#322,#204,.T.);
#432=EDGE_CURVE('',#324,#347,#205,.T.);
#433=EDGE_CURVE('',#348,#349,#34,.T.);
#434=EDGE_CURVE('',#350,#348,#303,.T.);
#435=EDGE_CURVE('',#351,#350,#35,.T.);
#436=EDGE_CURVE('',#351,#352,#206,.T.);
#437=EDGE_CURVE('',#352,#352,#304,.T.);
#438=EDGE_CURVE('',#349,#351,#36,.T.);
#439=EDGE_CURVE('',#353,#354,#37,.T.);
#440=EDGE_CURVE('',#355,#353,#305,.T.);
#441=EDGE_CURVE('',#356,#355,#38,.T.);
#442=EDGE_CURVE('',#354,#356,#39,.T.);
#443=EDGE_CURVE('',#354,#357,#207,.T.);
#444=EDGE_CURVE('',#357,#357,#306,.T.);
#445=EDGE_CURVE('',#358,#359,#208,.T.);
#446=EDGE_CURVE('',#359,#360,#209,.T.);
#447=EDGE_CURVE('',#360,#361,#210,.T.);
#448=EDGE_CURVE('',#361,#358,#211,.T.);
#449=EDGE_CURVE('',#362,#362,#307,.T.);
#450=EDGE_CURVE('',#363,#363,#308,.T.);
#451=EDGE_CURVE('',#364,#365,#212,.T.);
#452=EDGE_CURVE('',#365,#366,#213,.T.);
#453=EDGE_CURVE('',#366,#367,#214,.T.);
#454=EDGE_CURVE('',#367,#364,#215,.T.);
#455=EDGE_CURVE('',#319,#365,#216,.T.);
#456=EDGE_CURVE('',#316,#364,#217,.T.);
#457=EDGE_CURVE('',#318,#366,#218,.T.);
#458=EDGE_CURVE('',#317,#367,#219,.T.);
#459=EDGE_CURVE('',#368,#369,#220,.T.);
#460=EDGE_CURVE('',#360,#368,#221,.T.);
#461=EDGE_CURVE('',#369,#359,#222,.T.);
#462=EDGE_CURVE('',#369,#370,#223,.T.);
#463=EDGE_CURVE('',#358,#370,#224,.T.);
#464=EDGE_CURVE('',#370,#371,#225,.T.);
#465=EDGE_CURVE('',#361,#371,#226,.T.);
#466=EDGE_CURVE('',#371,#368,#227,.T.);
#467=EDGE_CURVE('',#372,#373,#40,.T.);
#468=EDGE_CURVE('',#374,#372,#41,.T.);
#469=EDGE_CURVE('',#373,#374,#42,.T.);
#470=EDGE_CURVE('',#373,#362,#228,.T.);
#471=EDGE_CURVE('',#349,#370,#15,.T.);
#472=EDGE_CURVE('',#356,#371,#16,.T.);
#473=EDGE_CURVE('',#355,#348,#229,.T.);
#474=EDGE_CURVE('',#369,#375,#17,.T.);
#475=EDGE_CURVE('',#350,#376,#230,.T.);
#476=EDGE_CURVE('',#376,#375,#43,.T.);
#477=EDGE_CURVE('',#375,#377,#44,.T.);
#478=EDGE_CURVE('',#378,#376,#309,.T.);
#479=EDGE_CURVE('',#377,#378,#45,.T.);
#480=EDGE_CURVE('',#377,#363,#231,.T.);
#481=EDGE_CURVE('',#379,#372,#18,.T.);
#482=EDGE_CURVE('',#379,#353,#232,.T.);
#483=EDGE_CURVE('',#374,#368,#19,.T.);
#484=EDGE_CURVE('',#378,#379,#233,.T.);
#485=EDGE_CURVE('',#380,#380,#310,.T.);
#486=EDGE_CURVE('',#380,#320,#234,.T.);
#487=EDGE_CURVE('',#381,#381,#311,.T.);
#488=EDGE_CURVE('',#381,#321,#235,.T.);
#489=ORIENTED_EDGE('',*,*,#382,.F.);
#490=ORIENTED_EDGE('',*,*,#383,.T.);
#491=ORIENTED_EDGE('',*,*,#384,.T.);
#492=ORIENTED_EDGE('',*,*,#383,.F.);
#493=ORIENTED_EDGE('',*,*,#384,.F.);
#494=ORIENTED_EDGE('',*,*,#385,.F.);
#495=ORIENTED_EDGE('',*,*,#386,.T.);
#496=ORIENTED_EDGE('',*,*,#387,.T.);
#497=ORIENTED_EDGE('',*,*,#386,.F.);
#498=ORIENTED_EDGE('',*,*,#387,.F.);
#499=ORIENTED_EDGE('',*,*,#388,.T.);
#500=ORIENTED_EDGE('',*,*,#389,.T.);
#501=ORIENTED_EDGE('',*,*,#390,.T.);
#502=ORIENTED_EDGE('',*,*,#391,.T.);
#503=ORIENTED_EDGE('',*,*,#382,.T.);
#504=ORIENTED_EDGE('',*,*,#385,.T.);
#505=ORIENTED_EDGE('',*,*,#392,.T.);
#506=ORIENTED_EDGE('',*,*,#393,.T.);
#507=ORIENTED_EDGE('',*,*,#394,.F.);
#508=ORIENTED_EDGE('',*,*,#395,.T.);
#509=ORIENTED_EDGE('',*,*,#396,.F.);
#510=ORIENTED_EDGE('',*,*,#397,.F.);
#511=ORIENTED_EDGE('',*,*,#398,.F.);
#512=ORIENTED_EDGE('',*,*,#397,.T.);
#513=ORIENTED_EDGE('',*,*,#399,.F.);
#514=ORIENTED_EDGE('',*,*,#400,.F.);
#515=ORIENTED_EDGE('',*,*,#401,.F.);
#516=ORIENTED_EDGE('',*,*,#400,.T.);
#517=ORIENTED_EDGE('',*,*,#402,.F.);
#518=ORIENTED_EDGE('',*,*,#403,.F.);
#519=ORIENTED_EDGE('',*,*,#404,.F.);
#520=ORIENTED_EDGE('',*,*,#403,.T.);
#521=ORIENTED_EDGE('',*,*,#405,.F.);
#522=ORIENTED_EDGE('',*,*,#406,.F.);
#523=ORIENTED_EDGE('',*,*,#407,.F.);
#524=ORIENTED_EDGE('',*,*,#406,.T.);
#525=ORIENTED_EDGE('',*,*,#408,.F.);
#526=ORIENTED_EDGE('',*,*,#409,.F.);
#527=ORIENTED_EDGE('',*,*,#410,.F.);
#528=ORIENTED_EDGE('',*,*,#409,.T.);
#529=ORIENTED_EDGE('',*,*,#411,.F.);
#530=ORIENTED_EDGE('',*,*,#412,.F.);
#531=ORIENTED_EDGE('',*,*,#413,.F.);
#532=ORIENTED_EDGE('',*,*,#412,.T.);
#533=ORIENTED_EDGE('',*,*,#414,.F.);
#534=ORIENTED_EDGE('',*,*,#415,.F.);
#535=ORIENTED_EDGE('',*,*,#416,.F.);
#536=ORIENTED_EDGE('',*,*,#415,.T.);
#537=ORIENTED_EDGE('',*,*,#417,.F.);
#538=ORIENTED_EDGE('',*,*,#418,.F.);
#539=ORIENTED_EDGE('',*,*,#419,.F.);
#540=ORIENTED_EDGE('',*,*,#418,.T.);
#541=ORIENTED_EDGE('',*,*,#420,.F.);
#542=ORIENTED_EDGE('',*,*,#421,.F.);
#543=ORIENTED_EDGE('',*,*,#422,.F.);
#544=ORIENTED_EDGE('',*,*,#421,.T.);
#545=ORIENTED_EDGE('',*,*,#423,.F.);
#546=ORIENTED_EDGE('',*,*,#424,.F.);
#547=ORIENTED_EDGE('',*,*,#425,.F.);
#548=ORIENTED_EDGE('',*,*,#424,.T.);
#549=ORIENTED_EDGE('',*,*,#426,.F.);
#550=ORIENTED_EDGE('',*,*,#427,.F.);
#551=ORIENTED_EDGE('',*,*,#428,.F.);
#552=ORIENTED_EDGE('',*,*,#427,.T.);
#553=ORIENTED_EDGE('',*,*,#429,.F.);
#554=ORIENTED_EDGE('',*,*,#430,.F.);
#555=ORIENTED_EDGE('',*,*,#431,.F.);
#556=ORIENTED_EDGE('',*,*,#430,.T.);
#557=ORIENTED_EDGE('',*,*,#432,.F.);
#558=ORIENTED_EDGE('',*,*,#395,.F.);
#559=ORIENTED_EDGE('',*,*,#432,.T.);
#560=ORIENTED_EDGE('',*,*,#429,.T.);
#561=ORIENTED_EDGE('',*,*,#426,.T.);
#562=ORIENTED_EDGE('',*,*,#423,.T.);
#563=ORIENTED_EDGE('',*,*,#420,.T.);
#564=ORIENTED_EDGE('',*,*,#417,.T.);
#565=ORIENTED_EDGE('',*,*,#414,.T.);
#566=ORIENTED_EDGE('',*,*,#411,.T.);
#567=ORIENTED_EDGE('',*,*,#408,.T.);
#568=ORIENTED_EDGE('',*,*,#405,.T.);
#569=ORIENTED_EDGE('',*,*,#402,.T.);
#570=ORIENTED_EDGE('',*,*,#399,.T.);
#571=ORIENTED_EDGE('',*,*,#396,.T.);
#572=ORIENTED_EDGE('',*,*,#433,.F.);
#573=ORIENTED_EDGE('',*,*,#434,.F.);
#574=ORIENTED_EDGE('',*,*,#435,.F.);
#575=ORIENTED_EDGE('',*,*,#436,.T.);
#576=ORIENTED_EDGE('',*,*,#437,.F.);
#577=ORIENTED_EDGE('',*,*,#436,.F.);
#578=ORIENTED_EDGE('',*,*,#438,.F.);
#579=ORIENTED_EDGE('',*,*,#439,.F.);
#580=ORIENTED_EDGE('',*,*,#440,.F.);
#581=ORIENTED_EDGE('',*,*,#441,.F.);
#582=ORIENTED_EDGE('',*,*,#442,.F.);
#583=ORIENTED_EDGE('',*,*,#443,.T.);
#584=ORIENTED_EDGE('',*,*,#444,.F.);
#585=ORIENTED_EDGE('',*,*,#443,.F.);
#586=ORIENTED_EDGE('',*,*,#445,.T.);
#587=ORIENTED_EDGE('',*,*,#446,.T.);
#588=ORIENTED_EDGE('',*,*,#447,.T.);
#589=ORIENTED_EDGE('',*,*,#448,.T.);
#590=ORIENTED_EDGE('',*,*,#437,.T.);
#591=ORIENTED_EDGE('',*,*,#444,.T.);
#592=ORIENTED_EDGE('',*,*,#449,.T.);
#593=ORIENTED_EDGE('',*,*,#450,.T.);
#594=ORIENTED_EDGE('',*,*,#451,.T.);
#595=ORIENTED_EDGE('',*,*,#452,.T.);
#596=ORIENTED_EDGE('',*,*,#453,.T.);
#597=ORIENTED_EDGE('',*,*,#454,.T.);
#598=ORIENTED_EDGE('',*,*,#391,.F.);
#599=ORIENTED_EDGE('',*,*,#455,.T.);
#600=ORIENTED_EDGE('',*,*,#451,.F.);
#601=ORIENTED_EDGE('',*,*,#456,.F.);
#602=ORIENTED_EDGE('',*,*,#390,.F.);
#603=ORIENTED_EDGE('',*,*,#457,.T.);
#604=ORIENTED_EDGE('',*,*,#452,.F.);
#605=ORIENTED_EDGE('',*,*,#455,.F.);
#606=ORIENTED_EDGE('',*,*,#389,.F.);
#607=ORIENTED_EDGE('',*,*,#458,.T.);
#608=ORIENTED_EDGE('',*,*,#453,.F.);
#609=ORIENTED_EDGE('',*,*,#457,.F.);
#610=ORIENTED_EDGE('',*,*,#388,.F.);
#611=ORIENTED_EDGE('',*,*,#456,.T.);
#612=ORIENTED_EDGE('',*,*,#454,.F.);
#613=ORIENTED_EDGE('',*,*,#458,.F.);
#614=ORIENTED_EDGE('',*,*,#459,.F.);
#615=ORIENTED_EDGE('',*,*,#460,.F.);
#616=ORIENTED_EDGE('',*,*,#446,.F.);
#617=ORIENTED_EDGE('',*,*,#461,.F.);
#618=ORIENTED_EDGE('',*,*,#462,.F.);
#619=ORIENTED_EDGE('',*,*,#461,.T.);
#620=ORIENTED_EDGE('',*,*,#445,.F.);
#621=ORIENTED_EDGE('',*,*,#463,.T.);
#622=ORIENTED_EDGE('',*,*,#464,.F.);
#623=ORIENTED_EDGE('',*,*,#463,.F.);
#624=ORIENTED_EDGE('',*,*,#448,.F.);
#625=ORIENTED_EDGE('',*,*,#465,.T.);
#626=ORIENTED_EDGE('',*,*,#466,.F.);
#627=ORIENTED_EDGE('',*,*,#465,.F.);
#628=ORIENTED_EDGE('',*,*,#447,.F.);
#629=ORIENTED_EDGE('',*,*,#460,.T.);
#630=ORIENTED_EDGE('',*,*,#467,.F.);
#631=ORIENTED_EDGE('',*,*,#468,.F.);
#632=ORIENTED_EDGE('',*,*,#469,.F.);
#633=ORIENTED_EDGE('',*,*,#470,.T.);
#634=ORIENTED_EDGE('',*,*,#449,.F.);
#635=ORIENTED_EDGE('',*,*,#470,.F.);
#636=ORIENTED_EDGE('',*,*,#433,.T.);
#637=ORIENTED_EDGE('',*,*,#471,.T.);
#638=ORIENTED_EDGE('',*,*,#464,.T.);
#639=ORIENTED_EDGE('',*,*,#472,.F.);
#640=ORIENTED_EDGE('',*,*,#441,.T.);
#641=ORIENTED_EDGE('',*,*,#473,.T.);
#642=ORIENTED_EDGE('',*,*,#474,.F.);
#643=ORIENTED_EDGE('',*,*,#462,.T.);
#644=ORIENTED_EDGE('',*,*,#471,.F.);
#645=ORIENTED_EDGE('',*,*,#438,.T.);
#646=ORIENTED_EDGE('',*,*,#435,.T.);
#647=ORIENTED_EDGE('',*,*,#475,.T.);
#648=ORIENTED_EDGE('',*,*,#476,.T.);
#649=ORIENTED_EDGE('',*,*,#477,.F.);
#650=ORIENTED_EDGE('',*,*,#476,.F.);
#651=ORIENTED_EDGE('',*,*,#478,.F.);
#652=ORIENTED_EDGE('',*,*,#479,.F.);
#653=ORIENTED_EDGE('',*,*,#480,.T.);
#654=ORIENTED_EDGE('',*,*,#450,.F.);
#655=ORIENTED_EDGE('',*,*,#480,.F.);
#656=ORIENTED_EDGE('',*,*,#481,.F.);
#657=ORIENTED_EDGE('',*,*,#482,.T.);
#658=ORIENTED_EDGE('',*,*,#439,.T.);
#659=ORIENTED_EDGE('',*,*,#442,.T.);
#660=ORIENTED_EDGE('',*,*,#472,.T.);
#661=ORIENTED_EDGE('',*,*,#466,.T.);
#662=ORIENTED_EDGE('',*,*,#483,.F.);
#663=ORIENTED_EDGE('',*,*,#468,.T.);
#664=ORIENTED_EDGE('',*,*,#477,.T.);
#665=ORIENTED_EDGE('',*,*,#479,.T.);
#666=ORIENTED_EDGE('',*,*,#484,.T.);
#667=ORIENTED_EDGE('',*,*,#481,.T.);
#668=ORIENTED_EDGE('',*,*,#467,.T.);
#669=ORIENTED_EDGE('',*,*,#469,.T.);
#670=ORIENTED_EDGE('',*,*,#483,.T.);
#671=ORIENTED_EDGE('',*,*,#459,.T.);
#672=ORIENTED_EDGE('',*,*,#474,.T.);
#673=ORIENTED_EDGE('',*,*,#485,.F.);
#674=ORIENTED_EDGE('',*,*,#486,.T.);
#675=ORIENTED_EDGE('',*,*,#392,.F.);
#676=ORIENTED_EDGE('',*,*,#486,.F.);
#677=ORIENTED_EDGE('',*,*,#487,.F.);
#678=ORIENTED_EDGE('',*,*,#488,.T.);
#679=ORIENTED_EDGE('',*,*,#393,.F.);
#680=ORIENTED_EDGE('',*,*,#488,.F.);
#681=ORIENTED_EDGE('',*,*,#484,.F.);
#682=ORIENTED_EDGE('',*,*,#478,.T.);
#683=ORIENTED_EDGE('',*,*,#475,.F.);
#684=ORIENTED_EDGE('',*,*,#434,.T.);
#685=ORIENTED_EDGE('',*,*,#473,.F.);
#686=ORIENTED_EDGE('',*,*,#440,.T.);
#687=ORIENTED_EDGE('',*,*,#482,.F.);
#688=ORIENTED_EDGE('',*,*,#394,.T.);
#689=ORIENTED_EDGE('',*,*,#398,.T.);
#690=ORIENTED_EDGE('',*,*,#401,.T.);
#691=ORIENTED_EDGE('',*,*,#404,.T.);
#692=ORIENTED_EDGE('',*,*,#407,.T.);
#693=ORIENTED_EDGE('',*,*,#410,.T.);
#694=ORIENTED_EDGE('',*,*,#413,.T.);
#695=ORIENTED_EDGE('',*,*,#416,.T.);
#696=ORIENTED_EDGE('',*,*,#419,.T.);
#697=ORIENTED_EDGE('',*,*,#422,.T.);
#698=ORIENTED_EDGE('',*,*,#425,.T.);
#699=ORIENTED_EDGE('',*,*,#428,.T.);
#700=ORIENTED_EDGE('',*,*,#431,.T.);
#701=ORIENTED_EDGE('',*,*,#485,.T.);
#702=ORIENTED_EDGE('',*,*,#487,.T.);
#703=CYLINDRICAL_SURFACE('',#768,0.999999999999996);
#704=CYLINDRICAL_SURFACE('',#772,0.999999999999996);
#705=CYLINDRICAL_SURFACE('',#786,1.);
#706=CYLINDRICAL_SURFACE('',#789,1.);
#707=CYLINDRICAL_SURFACE('',#803,0.999999999999996);
#708=CYLINDRICAL_SURFACE('',#804,2.);
#709=CYLINDRICAL_SURFACE('',#807,2.);
#710=CYLINDRICAL_SURFACE('',#809,0.999999999999996);
#711=CYLINDRICAL_SURFACE('',#811,2.);
#712=CYLINDRICAL_SURFACE('',#814,2.);
#713=CYLINDRICAL_SURFACE('',#815,8.5);
#714=CYLINDRICAL_SURFACE('',#817,8.5);
#715=ADVANCED_FACE('',(#85),#703,.F.);
#716=ADVANCED_FACE('',(#86),#65,.T.);
#717=ADVANCED_FACE('',(#87),#704,.F.);
#718=ADVANCED_FACE('',(#88),#66,.T.);
#719=ADVANCED_FACE('',(#89,#53,#54,#55,#56),#67,.F.);
#720=ADVANCED_FACE('',(#90),#46,.T.);
#721=ADVANCED_FACE('',(#91),#47,.T.);
#722=ADVANCED_FACE('',(#92),#68,.T.);
#723=ADVANCED_FACE('',(#93),#48,.T.);
#724=ADVANCED_FACE('',(#94),#49,.T.);
#725=ADVANCED_FACE('',(#95),#69,.T.);
#726=ADVANCED_FACE('',(#96),#50,.T.);
#727=ADVANCED_FACE('',(#97),#70,.T.);
#728=ADVANCED_FACE('',(#98),#71,.T.);
#729=ADVANCED_FACE('',(#99),#72,.T.);
#730=ADVANCED_FACE('',(#100),#51,.T.);
#731=ADVANCED_FACE('',(#101),#52,.T.);
#732=ADVANCED_FACE('',(#102),#73,.T.);
#733=ADVANCED_FACE('',(#103),#74,.T.);
#734=ADVANCED_FACE('',(#104),#705,.F.);
#735=ADVANCED_FACE('',(#105),#706,.F.);
#736=ADVANCED_FACE('',(#106,#57,#58,#59,#60,#61),#75,.T.);
#737=ADVANCED_FACE('',(#107),#76,.T.);
#738=ADVANCED_FACE('',(#108),#77,.T.);
#739=ADVANCED_FACE('',(#109),#78,.T.);
#740=ADVANCED_FACE('',(#110),#79,.T.);
#741=ADVANCED_FACE('',(#111),#80,.T.);
#742=ADVANCED_FACE('',(#112),#81,.T.);
#743=ADVANCED_FACE('',(#113),#82,.T.);
#744=ADVANCED_FACE('',(#114),#83,.T.);
#745=ADVANCED_FACE('',(#115),#707,.F.);
#746=ADVANCED_FACE('',(#116),#708,.T.);
#747=ADVANCED_FACE('',(#117),#709,.T.);
#748=ADVANCED_FACE('',(#118),#710,.F.);
#749=ADVANCED_FACE('',(#119),#711,.T.);
#750=ADVANCED_FACE('',(#120),#712,.T.);
#751=ADVANCED_FACE('',(#121),#713,.F.);
#752=ADVANCED_FACE('',(#122),#714,.F.);
#753=ADVANCED_FACE('',(#123,#62,#63,#64),#84,.T.);
#754=CLOSED_SHELL('',(#715,#716,#717,#718,#719,#720,#721,#722,#723,#724,
#725,#726,#727,#728,#729,#730,#731,#732,#733,#734,#735,#736,#737,#738,#739,
#740,#741,#742,#743,#744,#745,#746,#747,#748,#749,#750,#751,#752,#753));
#755=DERIVED_UNIT_ELEMENT(#757,1.);
#756=DERIVED_UNIT_ELEMENT(#1500,-3.);
#757=(
MASS_UNIT()
NAMED_UNIT(*)
SI_UNIT(.KILO.,.GRAM.)
);
#758=DERIVED_UNIT((#755,#756));
#759=MEASURE_REPRESENTATION_ITEM('density measure',
POSITIVE_RATIO_MEASURE(7850.),#758);
#760=PROPERTY_DEFINITION_REPRESENTATION(#765,#762);
#761=PROPERTY_DEFINITION_REPRESENTATION(#766,#763);
#762=REPRESENTATION('material name',(#764),#1497);
#763=REPRESENTATION('density',(#759),#1497);
#764=DESCRIPTIVE_REPRESENTATION_ITEM('Steel','Steel');
#765=PROPERTY_DEFINITION('material property','material name',#1507);
#766=PROPERTY_DEFINITION('material property','density of part',#1507);
#767=AXIS2_PLACEMENT_3D('',#987,#820,#821);
#768=AXIS2_PLACEMENT_3D('',#988,#822,#823);
#769=AXIS2_PLACEMENT_3D('',#990,#824,#825);
#770=AXIS2_PLACEMENT_3D('',#993,#827,#828);
#771=AXIS2_PLACEMENT_3D('',#994,#829,#830);
#772=AXIS2_PLACEMENT_3D('',#995,#831,#832);
#773=AXIS2_PLACEMENT_3D('',#997,#833,#834);
#774=AXIS2_PLACEMENT_3D('',#1000,#836,#837);
#775=AXIS2_PLACEMENT_3D('',#1001,#838,#839);
#776=AXIS2_PLACEMENT_3D('',#1002,#840,#841);
#777=AXIS2_PLACEMENT_3D('',#1012,#846,#847);
#778=AXIS2_PLACEMENT_3D('',#1014,#848,#849);
#779=AXIS2_PLACEMENT_3D('',#1064,#853,#854);
#780=AXIS2_PLACEMENT_3D('',#1116,#860,#861);
#781=AXIS2_PLACEMENT_3D('',#1145,#866,#867);
#782=AXIS2_PLACEMENT_3D('',#1151,#871,#872);
#783=AXIS2_PLACEMENT_3D('',#1157,#876,#877);
#784=AXIS2_PLACEMENT_3D('',#1209,#883,#884);
#785=AXIS2_PLACEMENT_3D('',#1212,#887,#888);
#786=AXIS2_PLACEMENT_3D('',#1213,#889,#890);
#787=AXIS2_PLACEMENT_3D('',#1225,#891,#892);
#788=AXIS2_PLACEMENT_3D('',#1237,#894,#895);
#789=AXIS2_PLACEMENT_3D('',#1263,#896,#897);
#790=AXIS2_PLACEMENT_3D('',#1275,#898,#899);
#791=AXIS2_PLACEMENT_3D('',#1312,#901,#902);
#792=AXIS2_PLACEMENT_3D('',#1313,#903,#904);
#793=AXIS2_PLACEMENT_3D('',#1323,#909,#910);
#794=AXIS2_PLACEMENT_3D('',#1325,#911,#912);
#795=AXIS2_PLACEMENT_3D('',#1334,#917,#918);
#796=AXIS2_PLACEMENT_3D('',#1337,#921,#922);
#797=AXIS2_PLACEMENT_3D('',#1339,#924,#925);
#798=AXIS2_PLACEMENT_3D('',#1341,#927,#928);
#799=AXIS2_PLACEMENT_3D('',#1342,#929,#930);
#800=AXIS2_PLACEMENT_3D('',#1348,#934,#935);
#801=AXIS2_PLACEMENT_3D('',#1352,#938,#939);
#802=AXIS2_PLACEMENT_3D('',#1356,#942,#943);
#803=AXIS2_PLACEMENT_3D('',#1358,#945,#946);
#804=AXIS2_PLACEMENT_3D('',#1416,#948,#949);
#805=AXIS2_PLACEMENT_3D('',#1417,#950,#951);
#806=AXIS2_PLACEMENT_3D('',#1418,#952,#953);
#807=AXIS2_PLACEMENT_3D('',#1420,#955,#956);
#808=AXIS2_PLACEMENT_3D('',#1422,#957,#958);
#809=AXIS2_PLACEMENT_3D('',#1448,#960,#961);
#810=AXIS2_PLACEMENT_3D('',#1461,#962,#963);
#811=AXIS2_PLACEMENT_3D('',#1479,#965,#966);
#812=AXIS2_PLACEMENT_3D('',#1481,#967,#968);
#813=AXIS2_PLACEMENT_3D('',#1483,#970,#971);
#814=AXIS2_PLACEMENT_3D('',#1484,#972,#973);
#815=AXIS2_PLACEMENT_3D('',#1486,#975,#976);
#816=AXIS2_PLACEMENT_3D('',#1488,#977,#978);
#817=AXIS2_PLACEMENT_3D('',#1490,#980,#981);
#818=AXIS2_PLACEMENT_3D('',#1492,#982,#983);
#819=AXIS2_PLACEMENT_3D('',#1494,#985,#986);
#820=DIRECTION('axis',(0.,0.,1.));
#821=DIRECTION('refdir',(1.,0.,0.));
#822=DIRECTION('center_axis',(0.,1.,0.));
#823=DIRECTION('ref_axis',(1.,0.,0.));
#824=DIRECTION('center_axis',(0.,1.,0.));
#825=DIRECTION('ref_axis',(1.,0.,0.));
#826=DIRECTION('',(0.,1.,0.));
#827=DIRECTION('center_axis',(0.,1.,0.));
#828=DIRECTION('ref_axis',(1.,0.,0.));
#829=DIRECTION('center_axis',(0.,-1.,0.));
#830=DIRECTION('ref_axis',(1.,0.,0.));
#831=DIRECTION('center_axis',(0.,1.,0.));
#832=DIRECTION('ref_axis',(1.,0.,0.));
#833=DIRECTION('center_axis',(0.,1.,0.));
#834=DIRECTION('ref_axis',(1.,0.,0.));
#835=DIRECTION('',(0.,1.,0.));
#836=DIRECTION('center_axis',(0.,1.,0.));
#837=DIRECTION('ref_axis',(1.,0.,0.));
#838=DIRECTION('center_axis',(0.,-1.,0.));
#839=DIRECTION('ref_axis',(1.,0.,0.));
#840=DIRECTION('center_axis',(0.,1.,0.));
#841=DIRECTION('ref_axis',(-1.,0.,0.));
#842=DIRECTION('',(0.,0.,-1.));
#843=DIRECTION('',(1.,0.,0.));
#844=DIRECTION('',(0.,0.,1.));
#845=DIRECTION('',(-1.,0.,0.));
#846=DIRECTION('center_axis',(0.,1.,0.));
#847=DIRECTION('ref_axis',(0.,0.,1.));
#848=DIRECTION('center_axis',(0.,1.,0.));
#849=DIRECTION('ref_axis',(0.,0.,1.));
#850=DIRECTION('',(0.,1.,0.));
#851=DIRECTION('',(0.,1.,0.));
#852=DIRECTION('',(0.,1.,0.));
#853=DIRECTION('center_axis',(0.999308635323016,0.,0.0371786412991648));
#854=DIRECTION('ref_axis',(0.0371786412991648,0.,-0.999308635323016));
#855=DIRECTION('',(-0.0371786412991648,0.,0.999308635323016));
#856=DIRECTION('',(0.0371786412991648,0.,-0.999308635323016));
#857=DIRECTION('',(0.,1.,0.));
#858=DIRECTION('',(0.,1.,0.));
#859=DIRECTION('',(0.,1.,0.));
#860=DIRECTION('center_axis',(-0.0371786412991796,0.,0.999308635323015));
#861=DIRECTION('ref_axis',(0.999308635323015,0.,0.0371786412991796));
#862=DIRECTION('',(-0.999308635323015,0.,-0.0371786412991796));
#863=DIRECTION('',(0.999308635323015,0.,0.0371786412991796));
#864=DIRECTION('',(0.,1.,0.));
#865=DIRECTION('',(0.,1.,0.));
#866=DIRECTION('center_axis',(-0.0371786412991753,0.,0.999308635323015));
#867=DIRECTION('ref_axis',(0.999308635323015,0.,0.0371786412991753));
#868=DIRECTION('',(-0.999308635323015,0.,-0.0371786412991753));
#869=DIRECTION('',(0.999308635323015,0.,0.0371786412991753));
#870=DIRECTION('',(0.,1.,0.));
#871=DIRECTION('center_axis',(-0.999308635323015,0.,-0.0371786412991849));
#872=DIRECTION('ref_axis',(-0.0371786412991849,0.,0.999308635323015));
#873=DIRECTION('',(0.0371786412991849,0.,-0.999308635323015));
#874=DIRECTION('',(-0.0371786412991849,0.,0.999308635323015));
#875=DIRECTION('',(0.,1.,0.));
#876=DIRECTION('center_axis',(0.0371786412991753,0.,-0.999308635323015));
#877=DIRECTION('ref_axis',(-0.999308635323015,0.,-0.0371786412991753));
#878=DIRECTION('',(0.999308635323015,0.,0.0371786412991753));
#879=DIRECTION('',(-0.999308635323015,0.,-0.0371786412991753));
#880=DIRECTION('',(0.,1.,0.));
#881=DIRECTION('',(0.,1.,0.));
#882=DIRECTION('',(0.,1.,0.));
#883=DIRECTION('center_axis',(0.0371786412991813,0.,-0.999308635323015));
#884=DIRECTION('ref_axis',(-0.999308635323015,0.,-0.0371786412991813));
#885=DIRECTION('',(0.999308635323015,0.,0.0371786412991813));
#886=DIRECTION('',(-0.999308635323015,0.,-0.0371786412991812));
#887=DIRECTION('center_axis',(0.,1.,0.));
#888=DIRECTION('ref_axis',(-1.,0.,0.));
#889=DIRECTION('center_axis',(0.,1.,0.));
#890=DIRECTION('ref_axis',(-1.,0.,0.));
#891=DIRECTION('center_axis',(0.,-1.,0.));
#892=DIRECTION('ref_axis',(-1.,0.,0.));
#893=DIRECTION('',(0.,-1.,0.));
#894=DIRECTION('center_axis',(0.,1.,0.));
#895=DIRECTION('ref_axis',(1.,0.,0.));
#896=DIRECTION('center_axis',(0.,1.,0.));
#897=DIRECTION('ref_axis',(-1.,0.,0.));
#898=DIRECTION('center_axis',(0.,-1.,0.));
#899=DIRECTION('ref_axis',(-1.,0.,0.));
#900=DIRECTION('',(0.,-1.,0.));
#901=DIRECTION('center_axis',(0.,1.,0.));
#902=DIRECTION('ref_axis',(1.,0.,0.));
#903=DIRECTION('center_axis',(0.,-1.,0.));
#904=DIRECTION('ref_axis',(1.,0.,0.));
#905=DIRECTION('',(1.,0.,0.));
#906=DIRECTION('',(0.,0.,1.));
#907=DIRECTION('',(-1.,0.,0.));
#908=DIRECTION('',(0.,0.,-1.));
#909=DIRECTION('center_axis',(0.,1.,0.));
#910=DIRECTION('ref_axis',(1.,0.,0.));
#911=DIRECTION('center_axis',(0.,1.,0.));
#912=DIRECTION('ref_axis',(1.,0.,0.));
#913=DIRECTION('',(1.,0.,0.));
#914=DIRECTION('',(0.,0.,-1.));
#915=DIRECTION('',(-1.,0.,0.));
#916=DIRECTION('',(0.,0.,1.));
#917=DIRECTION('center_axis',(0.,0.,-1.));
#918=DIRECTION('ref_axis',(1.,0.,0.));
#919=DIRECTION('',(0.,-1.,0.));
#920=DIRECTION('',(0.,-1.,0.));
#921=DIRECTION('center_axis',(-1.,0.,0.));
#922=DIRECTION('ref_axis',(0.,0.,-1.));
#923=DIRECTION('',(0.,-1.,0.));
#924=DIRECTION('center_axis',(0.,0.,1.));
#925=DIRECTION('ref_axis',(-1.,0.,0.));
#926=DIRECTION('',(0.,-1.,0.));
#927=DIRECTION('center_axis',(1.,0.,0.));
#928=DIRECTION('ref_axis',(0.,0.,1.));
#929=DIRECTION('center_axis',(1.,0.,0.));
#930=DIRECTION('ref_axis',(0.,0.,-1.));
#931=DIRECTION('',(0.,0.,-1.));
#932=DIRECTION('',(0.,1.,0.));
#933=DIRECTION('',(0.,-1.,0.));
#934=DIRECTION('center_axis',(0.,0.,-1.));
#935=DIRECTION('ref_axis',(-1.,0.,0.));
#936=DIRECTION('',(-1.,0.,0.));
#937=DIRECTION('',(0.,1.,0.));
#938=DIRECTION('center_axis',(-1.,0.,0.));
#939=DIRECTION('ref_axis',(0.,0.,1.));
#940=DIRECTION('',(0.,0.,1.));
#941=DIRECTION('',(0.,1.,0.));
#942=DIRECTION('center_axis',(0.,0.,1.));
#943=DIRECTION('ref_axis',(1.,0.,0.));
#944=DIRECTION('',(1.,0.,0.));
#945=DIRECTION('center_axis',(0.,1.,0.));
#946=DIRECTION('ref_axis',(-1.,0.,0.));
#947=DIRECTION('',(0.,-1.,0.));
#948=DIRECTION('center_axis',(0.,0.,1.));
#949=DIRECTION('ref_axis',(-0.707106781186549,0.707106781186546,0.));
#950=DIRECTION('center_axis',(-0.707106781186547,-3.14018491736756E-15,
0.707106781186548));
#951=DIRECTION('ref_axis',(-0.707106781186548,-3.14018491736756E-15,-0.707106781186547));
#952=DIRECTION('center_axis',(0.707106781186548,0.,0.707106781186548));
#953=DIRECTION('ref_axis',(-0.707106781186547,0.,0.707106781186547));
#954=DIRECTION('',(0.,0.,-1.));
#955=DIRECTION('center_axis',(-1.,0.,0.));
#956=DIRECTION('ref_axis',(0.,0.707106781186546,-0.707106781186549));
#957=DIRECTION('center_axis',(0.707106781186549,0.,0.707106781186547));
#958=DIRECTION('ref_axis',(0.707106781186547,0.,-0.707106781186549));
#959=DIRECTION('',(1.,0.,0.));
#960=DIRECTION('center_axis',(0.,1.,0.));
#961=DIRECTION('ref_axis',(-1.,0.,0.));
#962=DIRECTION('center_axis',(0.,-1.,0.));
#963=DIRECTION('ref_axis',(-1.,0.,0.));
#964=DIRECTION('',(0.,-1.,0.));
#965=DIRECTION('center_axis',(1.,0.,0.));
#966=DIRECTION('ref_axis',(0.,0.707106781186544,0.707106781186551));
#967=DIRECTION('center_axis',(0.707106781186549,0.,-0.707106781186546));
#968=DIRECTION('ref_axis',(0.707106781186546,0.,0.707106781186549));
#969=DIRECTION('',(-1.,0.,0.));
#970=DIRECTION('center_axis',(0.707106781186549,0.,-0.707106781186546));
#971=DIRECTION('ref_axis',(0.707106781186546,0.,0.707106781186549));
#972=DIRECTION('center_axis',(0.,0.,-1.));
#973=DIRECTION('ref_axis',(0.707106781186548,0.707106781186548,0.));
#974=DIRECTION('',(0.,0.,1.));
#975=DIRECTION('center_axis',(0.,-1.,0.));
#976=DIRECTION('ref_axis',(0.,0.,1.));
#977=DIRECTION('center_axis',(0.,-1.,0.));
#978=DIRECTION('ref_axis',(0.,0.,1.));
#979=DIRECTION('',(0.,-1.,0.));
#980=DIRECTION('center_axis',(0.,-1.,0.));
#981=DIRECTION('ref_axis',(0.,0.,1.));
#982=DIRECTION('center_axis',(0.,-1.,0.));
#983=DIRECTION('ref_axis',(0.,0.,1.));
#984=DIRECTION('',(0.,-1.,0.));
#985=DIRECTION('center_axis',(0.,1.,0.));
#986=DIRECTION('ref_axis',(-1.,0.,0.));
#987=CARTESIAN_POINT('',(0.,0.,0.));
#988=CARTESIAN_POINT('Origin',(100.191535097778,40.,50.9576967548345));
#989=CARTESIAN_POINT('',(99.1915350977776,40.,50.9576967548345));
#990=CARTESIAN_POINT('Origin',(100.191535097778,40.,50.9576967548345));
#991=CARTESIAN_POINT('',(99.1915350977776,42.,50.9576967548345));
#992=CARTESIAN_POINT('',(99.1915350977776,40.,50.9576967548345));
#993=CARTESIAN_POINT('Origin',(100.191535097778,42.,50.9576967548345));
#994=CARTESIAN_POINT('Origin',(100.191535097778,42.,50.9576967548345));
#995=CARTESIAN_POINT('Origin',(82.3917249350218,40.,8.56326252829253));
#996=CARTESIAN_POINT('',(81.3917249350218,40.,8.56326252829253));
#997=CARTESIAN_POINT('Origin',(82.3917249350218,40.,8.56326252829253));
#998=CARTESIAN_POINT('',(81.3917249350218,42.,8.56326252829253));
#999=CARTESIAN_POINT('',(81.3917249350218,40.,8.56326252829253));
#1000=CARTESIAN_POINT('Origin',(82.3917249350218,42.,8.56326252829253));
#1001=CARTESIAN_POINT('Origin',(82.3917249350218,42.,8.56326252829253));
#1002=CARTESIAN_POINT('Origin',(55.,40.,30.));
#1003=CARTESIAN_POINT('',(2.5,40.,57.5));
#1004=CARTESIAN_POINT('',(2.5,40.,2.5));
#1005=CARTESIAN_POINT('',(2.5,40.,16.25));
#1006=CARTESIAN_POINT('',(107.5,40.,2.5));
#1007=CARTESIAN_POINT('',(81.25,40.,2.5));
#1008=CARTESIAN_POINT('',(107.5,40.,57.5));
#1009=CARTESIAN_POINT('',(107.5,40.,43.75));
#1010=CARTESIAN_POINT('',(28.75,40.,57.5));
#1011=CARTESIAN_POINT('',(91.6571408124693,40.,34.5413465366758));
#1012=CARTESIAN_POINT('Origin',(91.6571408124693,40.,43.0413465366758));
#1013=CARTESIAN_POINT('',(91.1881238421126,40.,8.20917046952416));
#1014=CARTESIAN_POINT('Origin',(91.1881238421126,40.,16.7091704695242));
#1015=CARTESIAN_POINT('Ctrl Pts',(68.9920808980421,42.5,29.3793305279063));
#1016=CARTESIAN_POINT('Ctrl Pts',(68.9920808980421,43.5,29.3793305279063));
#1017=CARTESIAN_POINT('Ctrl Pts',(68.8735474654352,42.5,29.2713223146861));
#1018=CARTESIAN_POINT('Ctrl Pts',(68.8735474654352,43.5,29.2713223146861));
#1019=CARTESIAN_POINT('Ctrl Pts',(68.6053506636134,42.5,29.0269401457144));
#1020=CARTESIAN_POINT('Ctrl Pts',(68.6053506636134,43.5,29.0269401457144));
#1021=CARTESIAN_POINT('Ctrl Pts',(68.3683758808918,42.5,28.7520422259495));
#1022=CARTESIAN_POINT('Ctrl Pts',(68.3683758808918,43.5,28.7520422259495));
#1023=CARTESIAN_POINT('Ctrl Pts',(68.2361355105363,42.5,28.5986393942128));
#1024=CARTESIAN_POINT('Ctrl Pts',(68.2361355105363,43.5,28.5986393942128));
#1025=CARTESIAN_POINT('',(68.2361355105363,42.5,28.5986393942128));
#1026=CARTESIAN_POINT('',(68.9920808980421,42.5,29.3793305279063));
#1027=CARTESIAN_POINT('Ctrl Pts',(68.2361355105363,42.5,28.5986393942128));
#1028=CARTESIAN_POINT('Ctrl Pts',(68.3683758808918,42.5,28.7520422259495));
#1029=CARTESIAN_POINT('Ctrl Pts',(68.6053506636134,42.5,29.0269401457144));
#1030=CARTESIAN_POINT('Ctrl Pts',(68.8735474654352,42.5,29.2713223146861));
#1031=CARTESIAN_POINT('Ctrl Pts',(68.9920808980421,42.5,29.3793305279063));
#1032=CARTESIAN_POINT('',(68.2361355105363,43.5,28.5986393942128));
#1033=CARTESIAN_POINT('',(68.2361355105363,42.5,28.5986393942128));
#1034=CARTESIAN_POINT('',(68.9920808980421,43.5,29.3793305279063));
#1035=CARTESIAN_POINT('Ctrl Pts',(68.9920808980421,43.5,29.3793305279063));
#1036=CARTESIAN_POINT('Ctrl Pts',(68.8735474654352,43.5,29.2713223146861));
#1037=CARTESIAN_POINT('Ctrl Pts',(68.6053506636134,43.5,29.0269401457144));
#1038=CARTESIAN_POINT('Ctrl Pts',(68.3683758808918,43.5,28.7520422259495));
#1039=CARTESIAN_POINT('Ctrl Pts',(68.2361355105363,43.5,28.5986393942128));
#1040=CARTESIAN_POINT('',(68.9920808980421,42.5,29.3793305279063));
#1041=CARTESIAN_POINT('Ctrl Pts',(69.6015311035597,42.5,29.7859673449564));
#1042=CARTESIAN_POINT('Ctrl Pts',(69.6015311035597,43.5,29.7859673449564));
#1043=CARTESIAN_POINT('Ctrl Pts',(69.5008263417325,42.5,29.7320402460734));
#1044=CARTESIAN_POINT('Ctrl Pts',(69.5008263417325,43.5,29.7320402460734));
#1045=CARTESIAN_POINT('Ctrl Pts',(69.2846127411014,42.5,29.6162585093461));
#1046=CARTESIAN_POINT('Ctrl Pts',(69.2846127411014,43.5,29.6162585093461));
#1047=CARTESIAN_POINT('Ctrl Pts',(69.0939432066712,42.5,29.4618310547409));
#1048=CARTESIAN_POINT('Ctrl Pts',(69.0939432066712,43.5,29.4618310547409));
#1049=CARTESIAN_POINT('Ctrl Pts',(68.9920808980421,42.5,29.3793305279063));
#1050=CARTESIAN_POINT('Ctrl Pts',(68.9920808980421,43.5,29.3793305279063));
#1051=CARTESIAN_POINT('',(69.6015311035597,42.5,29.7859673449564));
#1052=CARTESIAN_POINT('Ctrl Pts',(68.9920808980421,42.5,29.3793305279063));
#1053=CARTESIAN_POINT('Ctrl Pts',(69.0939432066712,42.5,29.4618310547409));
#1054=CARTESIAN_POINT('Ctrl Pts',(69.2846127411014,42.5,29.6162585093461));
#1055=CARTESIAN_POINT('Ctrl Pts',(69.5008263417325,42.5,29.7320402460734));
#1056=CARTESIAN_POINT('Ctrl Pts',(69.6015311035597,42.5,29.7859673449564));
#1057=CARTESIAN_POINT('',(69.6015311035597,43.5,29.7859673449564));
#1058=CARTESIAN_POINT('Ctrl Pts',(69.6015311035597,43.5,29.7859673449564));
#1059=CARTESIAN_POINT('Ctrl Pts',(69.5008263417325,43.5,29.7320402460734));
#1060=CARTESIAN_POINT('Ctrl Pts',(69.2846127411014,43.5,29.6162585093461));
#1061=CARTESIAN_POINT('Ctrl Pts',(69.0939432066712,43.5,29.4618310547409));
#1062=CARTESIAN_POINT('Ctrl Pts',(68.9920808980421,43.5,29.3793305279063));
#1063=CARTESIAN_POINT('',(69.6015311035597,42.5,29.7859673449564));
#1064=CARTESIAN_POINT('Origin',(69.5956981685053,42.5,29.9427482859877));
#1065=CARTESIAN_POINT('',(69.5956981685053,42.5,29.9427482859877));
#1066=CARTESIAN_POINT('',(69.5845471719484,42.5,30.2424711043147));
#1067=CARTESIAN_POINT('',(69.5956981685053,43.5,29.9427482859877));
#1068=CARTESIAN_POINT('',(69.6015311035597,43.5,29.7859673449564));
#1069=CARTESIAN_POINT('',(69.5956981685053,42.5,29.9427482859877));
#1070=CARTESIAN_POINT('Ctrl Pts',(68.9259014834009,42.5,30.3325085699323));
#1071=CARTESIAN_POINT('Ctrl Pts',(68.9259014834009,43.5,30.3325085699323));
#1072=CARTESIAN_POINT('Ctrl Pts',(69.0341530606735,42.5,30.2562834460952));
#1073=CARTESIAN_POINT('Ctrl Pts',(69.0341530606735,43.5,30.2562834460952));
#1074=CARTESIAN_POINT('Ctrl Pts',(69.2461758523966,42.5,30.1069880366188));
#1075=CARTESIAN_POINT('Ctrl Pts',(69.2461758523966,43.5,30.1069880366188));
#1076=CARTESIAN_POINT('Ctrl Pts',(69.4808436921344,42.5,29.9967181462474));
#1077=CARTESIAN_POINT('Ctrl Pts',(69.4808436921344,43.5,29.9967181462474));
#1078=CARTESIAN_POINT('Ctrl Pts',(69.5956981685053,42.5,29.9427482859877));
#1079=CARTESIAN_POINT('Ctrl Pts',(69.5956981685053,43.5,29.9427482859877));
#1080=CARTESIAN_POINT('',(68.9259014834009,42.5,30.3325085699323));
#1081=CARTESIAN_POINT('Ctrl Pts',(69.5956981685053,42.5,29.9427482859877));
#1082=CARTESIAN_POINT('Ctrl Pts',(69.4808436921344,42.5,29.9967181462474));
#1083=CARTESIAN_POINT('Ctrl Pts',(69.2461758523966,42.5,30.1069880366188));
#1084=CARTESIAN_POINT('Ctrl Pts',(69.0341530606735,42.5,30.2562834460952));
#1085=CARTESIAN_POINT('Ctrl Pts',(68.9259014834009,42.5,30.3325085699323));
#1086=CARTESIAN_POINT('',(68.9259014834009,43.5,30.3325085699323));
#1087=CARTESIAN_POINT('Ctrl Pts',(68.9259014834009,43.5,30.3325085699323));
#1088=CARTESIAN_POINT('Ctrl Pts',(69.0341530606735,43.5,30.2562834460952));
#1089=CARTESIAN_POINT('Ctrl Pts',(69.2461758523966,43.5,30.1069880366188));
#1090=CARTESIAN_POINT('Ctrl Pts',(69.4808436921344,43.5,29.9967181462474));
#1091=CARTESIAN_POINT('Ctrl Pts',(69.5956981685053,43.5,29.9427482859877));
#1092=CARTESIAN_POINT('',(68.9259014834009,42.5,30.3325085699323));
#1093=CARTESIAN_POINT('Ctrl Pts',(68.1415559256202,42.5,31.0490683226079));
#1094=CARTESIAN_POINT('Ctrl Pts',(68.1415559256202,43.5,31.0490683226079));
#1095=CARTESIAN_POINT('Ctrl Pts',(68.2802971902365,42.5,30.9070311940465));
#1096=CARTESIAN_POINT('Ctrl Pts',(68.2802971902365,43.5,30.9070311940465));
#1097=CARTESIAN_POINT('Ctrl Pts',(68.5282139212837,42.5,30.65322508454));
#1098=CARTESIAN_POINT('Ctrl Pts',(68.5282139212837,43.5,30.65322508454));
#1099=CARTESIAN_POINT('Ctrl Pts',(68.8043146064136,42.5,30.4305627288349));
#1100=CARTESIAN_POINT('Ctrl Pts',(68.8043146064136,43.5,30.4305627288349));
#1101=CARTESIAN_POINT('Ctrl Pts',(68.9259014834009,42.5,30.3325085699323));
#1102=CARTESIAN_POINT('Ctrl Pts',(68.9259014834009,43.5,30.3325085699323));
#1103=CARTESIAN_POINT('',(68.1415559256202,42.5,31.0490683226079));
#1104=CARTESIAN_POINT('Ctrl Pts',(68.9259014834009,42.5,30.3325085699323));
#1105=CARTESIAN_POINT('Ctrl Pts',(68.8043146064136,42.5,30.4305627288349));
#1106=CARTESIAN_POINT('Ctrl Pts',(68.5282139212837,42.5,30.65322508454));
#1107=CARTESIAN_POINT('Ctrl Pts',(68.2802971902365,42.5,30.9070311940465));
#1108=CARTESIAN_POINT('Ctrl Pts',(68.1415559256202,42.5,31.0490683226079));
#1109=CARTESIAN_POINT('',(68.1415559256202,43.5,31.0490683226079));
#1110=CARTESIAN_POINT('Ctrl Pts',(68.1415559256202,43.5,31.0490683226079));
#1111=CARTESIAN_POINT('Ctrl Pts',(68.2802971902365,43.5,30.9070311940465));
#1112=CARTESIAN_POINT('Ctrl Pts',(68.5282139212837,43.5,30.65322508454));
#1113=CARTESIAN_POINT('Ctrl Pts',(68.8043146064136,43.5,30.4305627288349));
#1114=CARTESIAN_POINT('Ctrl Pts',(68.9259014834009,43.5,30.3325085699323));
#1115=CARTESIAN_POINT('',(68.1415559256202,42.5,31.0490683226079));
#1116=CARTESIAN_POINT('Origin',(67.8791182343247,42.5,31.0393044954546));
#1117=CARTESIAN_POINT('',(67.8791182343247,42.5,31.0393044954546));
#1118=CARTESIAN_POINT('',(61.4291535991893,42.5,30.7993376693053));
#1119=CARTESIAN_POINT('',(67.8791182343247,43.5,31.0393044954546));
#1120=CARTESIAN_POINT('',(68.1415559256202,43.5,31.0490683226079));
#1121=CARTESIAN_POINT('',(67.8791182343247,42.5,31.0393044954546));
#1122=CARTESIAN_POINT('Ctrl Pts',(68.5897321788134,42.5,30.0111251077752));
#1123=CARTESIAN_POINT('Ctrl Pts',(68.5897321788134,43.5,30.0111251077752));
#1124=CARTESIAN_POINT('Ctrl Pts',(68.4642428022865,42.5,30.1521269341107));
#1125=CARTESIAN_POINT('Ctrl Pts',(68.4642428022865,43.5,30.1521269341107));
#1126=CARTESIAN_POINT('Ctrl Pts',(68.1854479395187,42.5,30.4653852027482));
#1127=CARTESIAN_POINT('Ctrl Pts',(68.1854479395187,43.5,30.4653852027482));
#1128=CARTESIAN_POINT('Ctrl Pts',(67.9878013782113,42.5,30.8356828681331));
#1129=CARTESIAN_POINT('Ctrl Pts',(67.9878013782113,43.5,30.8356828681331));
#1130=CARTESIAN_POINT('Ctrl Pts',(67.8791182343247,42.5,31.0393044954546));
#1131=CARTESIAN_POINT('Ctrl Pts',(67.8791182343247,43.5,31.0393044954546));
#1132=CARTESIAN_POINT('',(68.5897321788134,42.5,30.0111251077752));
#1133=CARTESIAN_POINT('Ctrl Pts',(67.8791182343247,42.5,31.0393044954546));
#1134=CARTESIAN_POINT('Ctrl Pts',(67.9878013782113,42.5,30.8356828681331));
#1135=CARTESIAN_POINT('Ctrl Pts',(68.1854479395187,42.5,30.4653852027482));
#1136=CARTESIAN_POINT('Ctrl Pts',(68.4642428022865,42.5,30.1521269341107));
#1137=CARTESIAN_POINT('Ctrl Pts',(68.5897321788134,42.5,30.0111251077752));
#1138=CARTESIAN_POINT('',(68.5897321788134,43.5,30.0111251077752));
#1139=CARTESIAN_POINT('Ctrl Pts',(68.5897321788134,43.5,30.0111251077752));
#1140=CARTESIAN_POINT('Ctrl Pts',(68.4642428022865,43.5,30.1521269341107));
#1141=CARTESIAN_POINT('Ctrl Pts',(68.1854479395187,43.5,30.4653852027482));
#1142=CARTESIAN_POINT('Ctrl Pts',(67.9878013782113,43.5,30.8356828681331));
#1143=CARTESIAN_POINT('Ctrl Pts',(67.8791182343247,43.5,31.0393044954546));
#1144=CARTESIAN_POINT('',(68.5897321788134,42.5,30.0111251077752));
#1145=CARTESIAN_POINT('Origin',(63.5659226479956,42.5,29.8242174739376));
#1146=CARTESIAN_POINT('',(63.5659226479956,42.5,29.8242174739376));
#1147=CARTESIAN_POINT('',(59.2921468717352,42.5,29.6652143682281));
#1148=CARTESIAN_POINT('',(63.5659226479956,43.5,29.8242174739376));
#1149=CARTESIAN_POINT('',(68.5897321788134,43.5,30.0111251077752));
#1150=CARTESIAN_POINT('',(63.5659226479956,42.5,29.8242174739376));
#1151=CARTESIAN_POINT('Origin',(63.5787297516338,42.5,29.4799808689425));
#1152=CARTESIAN_POINT('',(63.5787297516338,42.5,29.4799808689425));
#1153=CARTESIAN_POINT('',(63.5631406520773,42.5,29.8989935401808));
#1154=CARTESIAN_POINT('',(63.5787297516338,43.5,29.4799808689425));
#1155=CARTESIAN_POINT('',(63.5659226479956,43.5,29.8242174739376));
#1156=CARTESIAN_POINT('',(63.5787297516338,42.5,29.4799808689425));
#1157=CARTESIAN_POINT('Origin',(68.6025392824517,42.5,29.66688850278));
#1158=CARTESIAN_POINT('',(68.6025392824517,42.5,29.66688850278));
#1159=CARTESIAN_POINT('',(61.8168587407824,42.5,29.4144315801518));
#1160=CARTESIAN_POINT('',(68.6025392824517,43.5,29.66688850278));
#1161=CARTESIAN_POINT('',(63.5787297516338,43.5,29.4799808689425));
#1162=CARTESIAN_POINT('',(68.6025392824517,42.5,29.66688850278));
#1163=CARTESIAN_POINT('Ctrl Pts',(68.2594576603284,42.5,29.1643587626191));
#1164=CARTESIAN_POINT('Ctrl Pts',(68.2594576603284,43.5,29.1643587626191));
#1165=CARTESIAN_POINT('Ctrl Pts',(68.3034238366811,42.5,29.2342997870072));
#1166=CARTESIAN_POINT('Ctrl Pts',(68.3034238366811,43.5,29.2342997870072));
#1167=CARTESIAN_POINT('Ctrl Pts',(68.4114263837136,42.5,29.4061093324942));
#1168=CARTESIAN_POINT('Ctrl Pts',(68.4114263837136,43.5,29.4061093324942));
#1169=CARTESIAN_POINT('Ctrl Pts',(68.5314031895954,42.5,29.5698212122155));
#1170=CARTESIAN_POINT('Ctrl Pts',(68.5314031895954,43.5,29.5698212122155));
#1171=CARTESIAN_POINT('Ctrl Pts',(68.6025392824517,42.5,29.66688850278));
#1172=CARTESIAN_POINT('Ctrl Pts',(68.6025392824517,43.5,29.66688850278));
#1173=CARTESIAN_POINT('',(68.2594576603284,42.5,29.1643587626191));
#1174=CARTESIAN_POINT('Ctrl Pts',(68.6025392824517,42.5,29.66688850278));
#1175=CARTESIAN_POINT('Ctrl Pts',(68.5314031895954,42.5,29.5698212122155));
#1176=CARTESIAN_POINT('Ctrl Pts',(68.4114263837136,42.5,29.4061093324942));
#1177=CARTESIAN_POINT('Ctrl Pts',(68.3034238366811,42.5,29.2342997870072));
#1178=CARTESIAN_POINT('Ctrl Pts',(68.2594576603284,42.5,29.1643587626191));
#1179=CARTESIAN_POINT('',(68.2594576603284,43.5,29.1643587626191));
#1180=CARTESIAN_POINT('Ctrl Pts',(68.2594576603284,43.5,29.1643587626191));
#1181=CARTESIAN_POINT('Ctrl Pts',(68.3034238366811,43.5,29.2342997870072));
#1182=CARTESIAN_POINT('Ctrl Pts',(68.4114263837136,43.5,29.4061093324942));
#1183=CARTESIAN_POINT('Ctrl Pts',(68.5314031895954,43.5,29.5698212122155));
#1184=CARTESIAN_POINT('Ctrl Pts',(68.6025392824517,43.5,29.66688850278));
#1185=CARTESIAN_POINT('',(68.2594576603284,42.5,29.1643587626191));
#1186=CARTESIAN_POINT('Ctrl Pts',(67.9771060390619,42.5,28.5890023677072));
#1187=CARTESIAN_POINT('Ctrl Pts',(67.9771060390619,43.5,28.5890023677072));
#1188=CARTESIAN_POINT('Ctrl Pts',(68.030152347188,42.5,28.7059715405897));
#1189=CARTESIAN_POINT('Ctrl Pts',(68.030152347188,43.5,28.7059715405897));
#1190=CARTESIAN_POINT('Ctrl Pts',(68.1184401450289,42.5,28.9006495691628));
#1191=CARTESIAN_POINT('Ctrl Pts',(68.1184401450289,43.5,28.9006495691628));
#1192=CARTESIAN_POINT('Ctrl Pts',(68.2192269797071,42.5,29.0891255526429));
#1193=CARTESIAN_POINT('Ctrl Pts',(68.2192269797071,43.5,29.0891255526429));
#1194=CARTESIAN_POINT('Ctrl Pts',(68.2594576603284,42.5,29.1643587626191));
#1195=CARTESIAN_POINT('Ctrl Pts',(68.2594576603284,43.5,29.1643587626191));
#1196=CARTESIAN_POINT('',(67.9771060390619,42.5,28.5890023677072));
#1197=CARTESIAN_POINT('Ctrl Pts',(68.2594576603284,42.5,29.1643587626191));
#1198=CARTESIAN_POINT('Ctrl Pts',(68.2192269797071,42.5,29.0891255526429));
#1199=CARTESIAN_POINT('Ctrl Pts',(68.1184401450289,42.5,28.9006495691628));
#1200=CARTESIAN_POINT('Ctrl Pts',(68.030152347188,42.5,28.7059715405897));
#1201=CARTESIAN_POINT('Ctrl Pts',(67.9771060390619,42.5,28.5890023677072));
#1202=CARTESIAN_POINT('',(67.9771060390619,43.5,28.5890023677072));
#1203=CARTESIAN_POINT('Ctrl Pts',(67.9771060390619,43.5,28.5890023677072));
#1204=CARTESIAN_POINT('Ctrl Pts',(68.030152347188,43.5,28.7059715405897));
#1205=CARTESIAN_POINT('Ctrl Pts',(68.1184401450289,43.5,28.9006495691628));
#1206=CARTESIAN_POINT('Ctrl Pts',(68.2192269797071,43.5,29.0891255526429));
#1207=CARTESIAN_POINT('Ctrl Pts',(68.2594576603284,43.5,29.1643587626191));
#1208=CARTESIAN_POINT('',(67.9771060390619,42.5,28.5890023677072));
#1209=CARTESIAN_POINT('Origin',(68.2361355105363,42.5,28.5986393942128));
#1210=CARTESIAN_POINT('',(61.6532479198427,42.5,28.353727254163));
#1211=CARTESIAN_POINT('',(67.9771060390619,43.5,28.5890023677072));
#1212=CARTESIAN_POINT('Origin',(66.5837268757777,43.5,29.8190353451575));
#1213=CARTESIAN_POINT('Origin',(2.44804199478421,40.,1.20810123264809));
#1214=CARTESIAN_POINT('',(2.,42.5,2.10211374425505));
#1215=CARTESIAN_POINT('',(1.48801760830183,42.433358226142,1.48801760830184));
#1216=CARTESIAN_POINT('Ctrl Pts',(2.,42.5,2.10211374425505));
#1217=CARTESIAN_POINT('Ctrl Pts',(1.90432433829412,42.5,2.05416507042055));
#1218=CARTESIAN_POINT('Ctrl Pts',(1.81714173717189,42.4929394131247,1.99050667817874));
#1219=CARTESIAN_POINT('Ctrl Pts',(1.65522460890365,42.4721509413099,1.83057533411537));
#1220=CARTESIAN_POINT('Ctrl Pts',(1.57734434901105,42.4555576656048,1.71790287411092));
#1221=CARTESIAN_POINT('Ctrl Pts',(1.51104717305371,42.4393678716629,1.55945655340951));
#1222=CARTESIAN_POINT('Ctrl Pts',(1.49850087970801,42.4361343543808,1.52397190421088));
#1223=CARTESIAN_POINT('Ctrl Pts',(1.48801760830183,42.433358226142,1.48801760830184));
#1224=CARTESIAN_POINT('',(3.05869438548331,42.5,2.));
#1225=CARTESIAN_POINT('Origin',(2.44804199478421,42.5,1.20810123264809));
#1226=CARTESIAN_POINT('',(3.44804199478421,42.3365446747266,1.20810123264809));
#1227=CARTESIAN_POINT('Ctrl Pts',(3.44804199478421,42.3365446747266,1.20810123264809));
#1228=CARTESIAN_POINT('Ctrl Pts',(3.44804199478421,42.3875442049095,1.32637760765008));
#1229=CARTESIAN_POINT('Ctrl Pts',(3.42548665137241,42.429266457352,1.45785072674795));
#1230=CARTESIAN_POINT('Ctrl Pts',(3.32592143178718,42.4821916993424,1.70519342708754));
#1231=CARTESIAN_POINT('Ctrl Pts',(3.24873743349017,42.4940605211788,1.82084992095397));
#1232=CARTESIAN_POINT('Ctrl Pts',(3.12754538844703,42.4994267249276,1.9430542458825));
#1233=CARTESIAN_POINT('Ctrl Pts',(3.09428830622016,42.5,1.97255266242554));
#1234=CARTESIAN_POINT('Ctrl Pts',(3.05869438548331,42.5,2.));
#1235=CARTESIAN_POINT('',(3.44804199478421,35.,1.20810123264809));
#1236=CARTESIAN_POINT('',(3.44804199478421,40.,1.20810123264809));
#1237=CARTESIAN_POINT('Origin',(2.44804199478421,35.,1.20810123264809));
#1238=CARTESIAN_POINT('Ctrl Pts',(1.48801760830183,42.433358226142,1.48801760830184));
#1239=CARTESIAN_POINT('Ctrl Pts',(1.4603793387813,42.408256273803,1.3932271099685));
#1240=CARTESIAN_POINT('Ctrl Pts',(1.44804199478422,42.3748572520527,1.29695445829297));
#1241=CARTESIAN_POINT('Ctrl Pts',(1.44804199478422,42.2771595977065,1.07037738276242));
#1242=CARTESIAN_POINT('Ctrl Pts',(1.47768939356192,42.1980193700854,0.932482826485935));
#1243=CARTESIAN_POINT('Ctrl Pts',(1.58292651649905,42.0182237314062,0.689328721749117));
#1244=CARTESIAN_POINT('Ctrl Pts',(1.6581448280637,41.9177358041396,0.583784836995511));
#1245=CARTESIAN_POINT('Ctrl Pts',(1.82461129234732,41.7292662417902,0.417318372711892));
#1246=CARTESIAN_POINT('Ctrl Pts',(1.92901884444744,41.6253209801287,0.343631629169234));
#1247=CARTESIAN_POINT('Ctrl Pts',(2.10658488165604,41.497833993709,0.265986502540796));
#1248=CARTESIAN_POINT('Ctrl Pts',(2.16915561194596,41.460387913989,0.245390312225538));
#1249=CARTESIAN_POINT('Ctrl Pts',(2.30195726012525,41.4055343813361,0.216483695510554));
#1250=CARTESIAN_POINT('Ctrl Pts',(2.37224899920537,41.3883123367165,0.20810123264809));
#1251=CARTESIAN_POINT('Ctrl Pts',(2.44804199478422,41.3883123367165,0.20810123264809));
#1252=CARTESIAN_POINT('Ctrl Pts',(2.51832835918721,41.3883123367165,0.20810123264809));
#1253=CARTESIAN_POINT('Ctrl Pts',(2.58455490117657,41.4032624063607,0.215381963472075));
#1254=CARTESIAN_POINT('Ctrl Pts',(2.71028620474652,41.4521613462812,0.240975407409014));
#1255=CARTESIAN_POINT('Ctrl Pts',(2.76984134042724,41.4859558871512,0.259335234126615));
#1256=CARTESIAN_POINT('Ctrl Pts',(2.93903824289548,41.6018367021263,0.328459428234955));
#1257=CARTESIAN_POINT('Ctrl Pts',(3.03905124900763,41.697483443596,0.394011743995269));
#1258=CARTESIAN_POINT('Ctrl Pts',(3.21281940333373,41.8855636135345,0.551790403828158));
#1259=CARTESIAN_POINT('Ctrl Pts',(3.29658657745312,41.9939564663058,0.660718506204344));
#1260=CARTESIAN_POINT('Ctrl Pts',(3.41439823359934,42.187813787833,0.915165562187048));
#1261=CARTESIAN_POINT('Ctrl Pts',(3.44804199478421,42.2731139830762,1.06099493097496));
#1262=CARTESIAN_POINT('Ctrl Pts',(3.44804199478421,42.3365446747266,1.20810123264809));
#1263=CARTESIAN_POINT('Origin',(2.54956368589467,40.,58.7345612022985));
#1264=CARTESIAN_POINT('',(3.22810612382899,42.5,58.));
#1265=CARTESIAN_POINT('',(3.54956368589467,42.3602203740627,58.7345612022985));
#1266=CARTESIAN_POINT('Ctrl Pts',(3.22810612382899,42.5,58.));
#1267=CARTESIAN_POINT('Ctrl Pts',(3.23786796840213,42.5,58.0090173913279));
#1268=CARTESIAN_POINT('Ctrl Pts',(3.24739232591328,42.4999389298114,58.018176279944));
#1269=CARTESIAN_POINT('Ctrl Pts',(3.34773208159539,42.4985614150651,58.1185160356261));
#1270=CARTESIAN_POINT('Ctrl Pts',(3.42559710413187,42.4902598000994,58.2340502111371));
#1271=CARTESIAN_POINT('Ctrl Pts',(3.52644382390507,42.4450782483415,58.4822698601252));
#1272=CARTESIAN_POINT('Ctrl Pts',(3.54956368589467,42.4075212078843,58.6147754383487));
#1273=CARTESIAN_POINT('Ctrl Pts',(3.54956368589467,42.3602203740627,58.7345612022985));
#1274=CARTESIAN_POINT('',(2.,42.5,57.8991093753534));
#1275=CARTESIAN_POINT('Origin',(2.54956368589467,42.5,58.7345612022985));
#1276=CARTESIAN_POINT('',(1.61126515709412,42.4618575947074,58.3887348429059));
#1277=CARTESIAN_POINT('Ctrl Pts',(1.61126515709412,42.4618575947074,58.3887348429059));
#1278=CARTESIAN_POINT('Ctrl Pts',(1.61620828297544,42.46283705686,58.3753231187381));
#1279=CARTESIAN_POINT('Ctrl Pts',(1.62144125414141,42.4638545763875,58.3620116424309));
#1280=CARTESIAN_POINT('Ctrl Pts',(1.67873886641156,42.4747327115093,58.2249682990039));
#1281=CARTESIAN_POINT('Ctrl Pts',(1.75667016659677,42.487201212057,58.1121612571223));
#1282=CARTESIAN_POINT('Ctrl Pts',(1.89239483557396,42.4976258073247,57.9781027134027));
#1283=CARTESIAN_POINT('Ctrl Pts',(1.94396758106039,42.5,57.9359677335362));
#1284=CARTESIAN_POINT('Ctrl Pts',(2.,42.5,57.8991093753534));
#1285=CARTESIAN_POINT('Ctrl Pts',(3.54956368589467,42.3602203740627,58.7345612022984));
#1286=CARTESIAN_POINT('Ctrl Pts',(3.54956368589467,42.306322425222,58.871053658257));
#1287=CARTESIAN_POINT('Ctrl Pts',(3.52040420051447,42.2334226669806,59.008463439401));
#1288=CARTESIAN_POINT('Ctrl Pts',(3.41558154227833,42.066740112617,59.251829822138));
#1289=CARTESIAN_POINT('Ctrl Pts',(3.34026650735642,41.973155619254,59.3580719432098));
#1290=CARTESIAN_POINT('Ctrl Pts',(3.1731538649307,41.7993580059617,59.5251845856355));
#1291=CARTESIAN_POINT('Ctrl Pts',(3.06833701684264,41.7044340546176,59.5993216185332));
#1292=CARTESIAN_POINT('Ctrl Pts',(2.88937915695576,41.5903127386589,59.6773016432777));
#1293=CARTESIAN_POINT('Ctrl Pts',(2.82611253683809,41.5571944746863,59.6979728730211));
#1294=CARTESIAN_POINT('Ctrl Pts',(2.69287678248002,41.5097898748062,59.7265819505953));
#1295=CARTESIAN_POINT('Ctrl Pts',(2.62286830844983,41.4956392094936,59.7345612022985));
#1296=CARTESIAN_POINT('Ctrl Pts',(2.54956368589467,41.4956392094936,59.7345612022985));
#1297=CARTESIAN_POINT('Ctrl Pts',(2.48080832909384,41.4956392094936,59.7345612022985));
#1298=CARTESIAN_POINT('Ctrl Pts',(2.41442656727704,41.5081532254391,59.727499237944));
#1299=CARTESIAN_POINT('Ctrl Pts',(2.28750611299802,41.5509743042439,59.7017855022517));
#1300=CARTESIAN_POINT('Ctrl Pts',(2.22693517981892,41.5811691366106,59.683106110469));
#1301=CARTESIAN_POINT('Ctrl Pts',(2.05526654965471,41.6859881437082,59.6126139665978));
#1302=CARTESIAN_POINT('Ctrl Pts',(1.95409801873513,41.7741777027074,59.5455508068636));
#1303=CARTESIAN_POINT('Ctrl Pts',(1.7803998049023,41.9475180675913,59.3857590999548));
#1304=CARTESIAN_POINT('Ctrl Pts',(1.69769309909631,42.0474228978295,59.2764895555156));
#1305=CARTESIAN_POINT('Ctrl Pts',(1.5820872432202,42.2253519635195,59.0232810215035));
#1306=CARTESIAN_POINT('Ctrl Pts',(1.54956368589467,42.3031734014124,58.87902832154));
#1307=CARTESIAN_POINT('Ctrl Pts',(1.54956368589467,42.4036381275528,58.624609043941));
#1308=CARTESIAN_POINT('Ctrl Pts',(1.56885126641601,42.4390553792988,58.503812511635));
#1309=CARTESIAN_POINT('Ctrl Pts',(1.61126515709413,42.4618575947074,58.3887348429059));
#1310=CARTESIAN_POINT('',(3.54956368589467,35.,58.7345612022985));
#1311=CARTESIAN_POINT('',(3.54956368589467,40.,58.7345612022985));
#1312=CARTESIAN_POINT('Origin',(2.54956368589467,35.,58.7345612022985));
#1313=CARTESIAN_POINT('Origin',(55.,35.,30.));
#1314=CARTESIAN_POINT('',(0.,35.,0.));
#1315=CARTESIAN_POINT('',(110.,35.,0.));
#1316=CARTESIAN_POINT('',(110.,35.,0.));
#1317=CARTESIAN_POINT('',(110.,35.,60.));
#1318=CARTESIAN_POINT('',(110.,35.,60.));
#1319=CARTESIAN_POINT('',(0.,35.,60.));
#1320=CARTESIAN_POINT('',(0.,35.,60.));
#1321=CARTESIAN_POINT('',(0.,35.,0.));
#1322=CARTESIAN_POINT('',(109.820975908811,35.,58.8422693514284));
#1323=CARTESIAN_POINT('Origin',(108.820975908811,35.,58.8422693514284));
#1324=CARTESIAN_POINT('',(109.620182258406,35.,1.50773591981318));
#1325=CARTESIAN_POINT('Origin',(108.620182258406,35.,1.50773591981318));
#1326=CARTESIAN_POINT('',(2.5,35.,57.5));
#1327=CARTESIAN_POINT('',(107.5,35.,57.5));
#1328=CARTESIAN_POINT('',(2.5,35.,57.5));
#1329=CARTESIAN_POINT('',(107.5,35.,2.5));
#1330=CARTESIAN_POINT('',(107.5,35.,57.5));
#1331=CARTESIAN_POINT('',(2.5,35.,2.5));
#1332=CARTESIAN_POINT('',(107.5,35.,2.5));
#1333=CARTESIAN_POINT('',(2.5,35.,2.5));
#1334=CARTESIAN_POINT('Origin',(2.5,40.,57.5));
#1335=CARTESIAN_POINT('',(107.5,40.,57.5));
#1336=CARTESIAN_POINT('',(2.5,40.,57.5));
#1337=CARTESIAN_POINT('Origin',(107.5,40.,57.5));
#1338=CARTESIAN_POINT('',(107.5,40.,2.5));
#1339=CARTESIAN_POINT('Origin',(107.5,40.,2.5));
#1340=CARTESIAN_POINT('',(2.5,40.,2.5));
#1341=CARTESIAN_POINT('Origin',(2.5,40.,2.5));
#1342=CARTESIAN_POINT('Origin',(110.,40.,60.));
#1343=CARTESIAN_POINT('',(110.,40.5,60.));
#1344=CARTESIAN_POINT('',(110.,40.5,0.));
#1345=CARTESIAN_POINT('',(110.,40.5,45.));
#1346=CARTESIAN_POINT('',(110.,40.,60.));
#1347=CARTESIAN_POINT('',(110.,40.,0.));
#1348=CARTESIAN_POINT('Origin',(110.,40.,0.));
#1349=CARTESIAN_POINT('',(0.,40.5,0.));
#1350=CARTESIAN_POINT('',(82.5,40.5,0.));
#1351=CARTESIAN_POINT('',(0.,40.,0.));
#1352=CARTESIAN_POINT('Origin',(0.,40.,0.));
#1353=CARTESIAN_POINT('',(0.,40.5,60.));
#1354=CARTESIAN_POINT('',(0.,40.5,15.));
#1355=CARTESIAN_POINT('',(0.,40.,60.));
#1356=CARTESIAN_POINT('Origin',(0.,40.,60.));
#1357=CARTESIAN_POINT('',(27.5,40.5,60.));
#1358=CARTESIAN_POINT('Origin',(108.820975908811,40.,58.8422693514284));
#1359=CARTESIAN_POINT('',(108.124596005941,42.4961151858819,58.1245960059028));
#1360=CARTESIAN_POINT('',(109.820975908811,41.3270711816577,58.8422693514284));
#1361=CARTESIAN_POINT('Ctrl Pts',(108.124596005941,42.4961151858807,58.1245960059028));
#1362=CARTESIAN_POINT('Ctrl Pts',(108.214897269287,42.4904786490596,58.0369739904129));
#1363=CARTESIAN_POINT('Ctrl Pts',(108.327766561004,42.4768085291951,57.9627699158045));
#1364=CARTESIAN_POINT('Ctrl Pts',(108.571717940423,42.4207472942709,57.864685733402));
#1365=CARTESIAN_POINT('Ctrl Pts',(108.703085112787,42.376802065063,57.8422693514285));
#1366=CARTESIAN_POINT('Ctrl Pts',(108.969613807282,42.2568208220541,57.8422693514285));
#1367=CARTESIAN_POINT('Ctrl Pts',(109.116360391469,42.1674181764745,57.8765730497916));
#1368=CARTESIAN_POINT('Ctrl Pts',(109.371510880029,41.9647530411405,57.9956686913188));
#1369=CARTESIAN_POINT('Ctrl Pts',(109.480221105604,41.8516351119803,58.0800497756538));
#1370=CARTESIAN_POINT('Ctrl Pts',(109.636953379259,41.6550564034189,58.2539482578033));
#1371=CARTESIAN_POINT('Ctrl Pts',(109.701670510236,41.5550192076142,58.3534413467519));
#1372=CARTESIAN_POINT('Ctrl Pts',(109.769944580861,41.4324606189517,58.5211737359633));
#1373=CARTESIAN_POINT('Ctrl Pts',(109.788074338074,41.3964856428746,58.5800652478147));
#1374=CARTESIAN_POINT('Ctrl Pts',(109.813558095514,41.3436998092215,58.7049085871899));
#1375=CARTESIAN_POINT('Ctrl Pts',(109.820975908811,41.3270711816577,58.770924355844));
#1376=CARTESIAN_POINT('Ctrl Pts',(109.820975908811,41.3270711816577,58.8422693514284));
#1377=CARTESIAN_POINT('',(109.538649254287,41.7777161155889,59.5386492543999));
#1378=CARTESIAN_POINT('Ctrl Pts',(109.538649254239,41.7777161155494,59.5386492543999));
#1379=CARTESIAN_POINT('Ctrl Pts',(109.522206618115,41.7573101433001,59.5555946625375));
#1380=CARTESIAN_POINT('Ctrl Pts',(109.505390530608,41.7370608935211,59.5717227726774));
#1381=CARTESIAN_POINT('Ctrl Pts',(109.40707644089,41.622191834162,59.6598174632122));
#1382=CARTESIAN_POINT('Ctrl Pts',(109.30789778201,41.5185790148234,59.7238954430816));
#1383=CARTESIAN_POINT('Ctrl Pts',(109.141343758425,41.3905149807215,59.791455262378));
#1384=CARTESIAN_POINT('Ctrl Pts',(109.083060171932,41.3526749309595,59.8093891214184));
#1385=CARTESIAN_POINT('Ctrl Pts',(108.958989848778,41.2967064792136,59.8347213274808));
#1386=CARTESIAN_POINT('Ctrl Pts',(108.893274357894,41.2784880453722,59.8422693514284));
#1387=CARTESIAN_POINT('Ctrl Pts',(108.820975908811,41.2784880453722,59.8422693514284));
#1388=CARTESIAN_POINT('Ctrl Pts',(108.748677459729,41.2784880453722,59.8422693514284));
#1389=CARTESIAN_POINT('Ctrl Pts',(108.682961968845,41.2967064792136,59.8347213274808));
#1390=CARTESIAN_POINT('Ctrl Pts',(108.558891645691,41.3526749309595,59.8093891214184));
#1391=CARTESIAN_POINT('Ctrl Pts',(108.500608059198,41.3905149807215,59.791455262378));
#1392=CARTESIAN_POINT('Ctrl Pts',(108.334054035613,41.5185790148234,59.7238954430816));
#1393=CARTESIAN_POINT('Ctrl Pts',(108.234875376733,41.622191834162,59.6598174632122));
#1394=CARTESIAN_POINT('Ctrl Pts',(108.060806739603,41.825571641354,59.5038426404395));
#1395=CARTESIAN_POINT('Ctrl Pts',(107.975935462576,41.9423629832658,59.3953157981764));
#1396=CARTESIAN_POINT('Ctrl Pts',(107.855811861045,42.1518488375263,59.1396108690216));
#1397=CARTESIAN_POINT('Ctrl Pts',(107.820975908811,42.2444130528369,58.9921307108095));
#1398=CARTESIAN_POINT('Ctrl Pts',(107.820975908811,42.3686015118029,58.724665918721));
#1399=CARTESIAN_POINT('Ctrl Pts',(107.843288614116,42.4141949625417,58.5933770687668));
#1400=CARTESIAN_POINT('Ctrl Pts',(107.942809429923,42.4740247220265,58.3456371401443));
#1401=CARTESIAN_POINT('Ctrl Pts',(108.020224977633,42.4889303276295,58.2294315851104));
#1402=CARTESIAN_POINT('Ctrl Pts',(108.115805885388,42.4955639477367,58.1332046745646));
#1403=CARTESIAN_POINT('Ctrl Pts',(108.120174295525,42.4958473749942,58.1288865237118));
#1404=CARTESIAN_POINT('Ctrl Pts',(108.124596005941,42.4961151858831,58.1245960059028));
#1405=CARTESIAN_POINT('Ctrl Pts',(109.820975908811,41.3270711816577,58.8422693514284));
#1406=CARTESIAN_POINT('Ctrl Pts',(109.820975908811,41.3270711816577,58.9136143470129));
#1407=CARTESIAN_POINT('Ctrl Pts',(109.813558095514,41.3436998092215,58.979630115667));
#1408=CARTESIAN_POINT('Ctrl Pts',(109.788074338074,41.3964856428746,59.1044734550422));
#1409=CARTESIAN_POINT('Ctrl Pts',(109.769944580861,41.4324606189517,59.1633649668936));
#1410=CARTESIAN_POINT('Ctrl Pts',(109.701670510236,41.5550192076142,59.331097356105));
#1411=CARTESIAN_POINT('Ctrl Pts',(109.636953379259,41.6550564034189,59.4305904450536));
#1412=CARTESIAN_POINT('Ctrl Pts',(109.555643136312,41.7570383512248,59.5208062474661));
#1413=CARTESIAN_POINT('Ctrl Pts',(109.547260780558,41.7673459573121,59.5297744105433));
#1414=CARTESIAN_POINT('Ctrl Pts',(109.538649254306,41.7777161156631,59.5386492543315));
#1415=CARTESIAN_POINT('',(109.820975908811,40.,58.8422693514284));
#1416=CARTESIAN_POINT('Origin',(2.,40.5,15.));
#1417=CARTESIAN_POINT('Origin',(2.,40.5,2.));
#1418=CARTESIAN_POINT('Origin',(2.,40.5,58.));
#1419=CARTESIAN_POINT('',(2.,42.5,15.));
#1420=CARTESIAN_POINT('Origin',(82.5,40.5,2.));
#1421=CARTESIAN_POINT('',(109.260431401524,42.0528401980075,0.73956859751969));
#1422=CARTESIAN_POINT('Origin',(108.,40.5,2.));
#1423=CARTESIAN_POINT('',(107.749736352357,42.5,2.));
#1424=CARTESIAN_POINT('',(82.5,42.5,2.));
#1425=CARTESIAN_POINT('Ctrl Pts',(107.749736352357,42.5,2.));
#1426=CARTESIAN_POINT('Ctrl Pts',(107.728824035812,42.5,1.96302179855312));
#1427=CARTESIAN_POINT('Ctrl Pts',(107.710191875054,42.4989658459437,1.92454337632077));
#1428=CARTESIAN_POINT('Ctrl Pts',(107.644053695167,42.4896298401055,1.76225546843602));
#1429=CARTESIAN_POINT('Ctrl Pts',(107.620182258406,42.4694404637487,1.62968332772816));
#1430=CARTESIAN_POINT('Ctrl Pts',(107.620182258406,42.4037559750039,1.37102626189026));
#1431=CARTESIAN_POINT('Ctrl Pts',(107.64954346244,42.3516456652844,1.23134075673086));
#1432=CARTESIAN_POINT('Ctrl Pts',(107.75875542038,42.227122098868,0.981924430750972));
#1433=CARTESIAN_POINT('Ctrl Pts',(107.838343462612,42.1550513997081,0.871907819765864));
#1434=CARTESIAN_POINT('Ctrl Pts',(108.012382417576,42.0276370782894,0.70517096813354));
#1435=CARTESIAN_POINT('Ctrl Pts',(108.118060685063,41.9619563076568,0.633412354231789));
#1436=CARTESIAN_POINT('Ctrl Pts',(108.296392411277,41.8877862536494,0.559420619133782));
#1437=CARTESIAN_POINT('Ctrl Pts',(108.359188411757,41.8671836094022,0.540151307686871));
#1438=CARTESIAN_POINT('Ctrl Pts',(108.488185333764,41.8390699845765,0.514311026469588));
#1439=CARTESIAN_POINT('Ctrl Pts',(108.554393487369,41.8315960029169,0.507735919813188));
#1440=CARTESIAN_POINT('Ctrl Pts',(108.620182258406,41.8315960029169,0.507735919813188));
#1441=CARTESIAN_POINT('Ctrl Pts',(108.685971029443,41.8315960029169,0.507735919813188));
#1442=CARTESIAN_POINT('Ctrl Pts',(108.752179183048,41.8390699845765,0.514311026469588));
#1443=CARTESIAN_POINT('Ctrl Pts',(108.881176105055,41.8671836094022,0.540151307686871));
#1444=CARTESIAN_POINT('Ctrl Pts',(108.943972105535,41.8877862536494,0.559420619133782));
#1445=CARTESIAN_POINT('Ctrl Pts',(109.099106608091,41.9523083366082,0.623787578739614));
#1446=CARTESIAN_POINT('Ctrl Pts',(109.18634461138,42.0027184270756,0.677819025050035));
#1447=CARTESIAN_POINT('Ctrl Pts',(109.260431401287,42.0528401977156,0.73956859751969));
#1448=CARTESIAN_POINT('Origin',(108.620182258406,40.,1.50773591981318));
#1449=CARTESIAN_POINT('',(109.620182258406,41.6726079692492,1.50773591981318));
#1450=CARTESIAN_POINT('Ctrl Pts',(109.260431401621,42.0528401984129,0.739568597798035));
#1451=CARTESIAN_POINT('Ctrl Pts',(109.292130041868,42.0271105955878,0.765988658477014));
#1452=CARTESIAN_POINT('Ctrl Pts',(109.321642141001,42.0015378160282,0.793924083446286));
#1453=CARTESIAN_POINT('Ctrl Pts',(109.426523505406,41.905741360733,0.905499722257172));
#1454=CARTESIAN_POINT('Ctrl Pts',(109.49610078905,41.8294597459055,1.00896463223546));
#1455=CARTESIAN_POINT('Ctrl Pts',(109.568563866253,41.7413914156229,1.1843572286603));
#1456=CARTESIAN_POINT('Ctrl Pts',(109.587608529839,41.7165309976426,1.24625008761496));
#1457=CARTESIAN_POINT('Ctrl Pts',(109.613412168435,41.6821075601793,1.37447199535033));
#1458=CARTESIAN_POINT('Ctrl Pts',(109.620182258406,41.6726079692492,1.44081582733862));
#1459=CARTESIAN_POINT('Ctrl Pts',(109.620182258406,41.6726079692492,1.50773591981318));
#1460=CARTESIAN_POINT('',(108.,42.5,2.29219367288759));
#1461=CARTESIAN_POINT('Origin',(108.620182258406,42.5,1.50773591981318));
#1462=CARTESIAN_POINT('Ctrl Pts',(109.620182258406,41.6726079692492,1.50773591981318));
#1463=CARTESIAN_POINT('Ctrl Pts',(109.620182258406,41.6726079692492,1.57780840631466));
#1464=CARTESIAN_POINT('Ctrl Pts',(109.612777419776,41.6830062610745,1.64689082918987));
#1465=CARTESIAN_POINT('Ctrl Pts',(109.584825095829,41.7201871360433,1.77994392395327));
#1466=CARTESIAN_POINT('Ctrl Pts',(109.564261792811,41.7468943354082,1.84393232659439));
#1467=CARTESIAN_POINT('Ctrl Pts',(109.4861331245,41.8409138532049,2.0248297461365));
#1468=CARTESIAN_POINT('Ctrl Pts',(109.41123576894,41.9216213154546,2.1308959716524));
#1469=CARTESIAN_POINT('Ctrl Pts',(109.242537326726,42.0712852174559,2.29959441386637));
#1470=CARTESIAN_POINT('Ctrl Pts',(109.135176324469,42.1526834022803,2.37511922048245));
#1471=CARTESIAN_POINT('Ctrl Pts',(108.891396386224,42.2959399532448,2.47934056795529));
#1472=CARTESIAN_POINT('Ctrl Pts',(108.754696679152,42.3575392373279,2.50773591981318));
#1473=CARTESIAN_POINT('Ctrl Pts',(108.498808453448,42.4410020522537,2.50773591981318));
#1474=CARTESIAN_POINT('Ctrl Pts',(108.365722874648,42.4702351908011,2.48403891959675));
#1475=CARTESIAN_POINT('Ctrl Pts',(108.154958665498,42.4959069286704,2.3978888876399));
#1476=CARTESIAN_POINT('Ctrl Pts',(108.0724040411,42.5,2.34943538099899));
#1477=CARTESIAN_POINT('Ctrl Pts',(108.,42.5,2.29219367288757));
#1478=CARTESIAN_POINT('',(109.620182258406,40.,1.50773591981318));
#1479=CARTESIAN_POINT('Origin',(27.5,40.5,58.));
#1480=CARTESIAN_POINT('',(108.,42.5,58.));
#1481=CARTESIAN_POINT('Origin',(108.,40.5,58.));
#1482=CARTESIAN_POINT('',(27.5,42.5,58.));
#1483=CARTESIAN_POINT('Origin',(108.,40.5,58.));
#1484=CARTESIAN_POINT('Origin',(108.,40.5,45.));
#1485=CARTESIAN_POINT('',(108.,42.5,45.));
#1486=CARTESIAN_POINT('Origin',(91.6571408124693,32.5,43.0413465366758));
#1487=CARTESIAN_POINT('',(91.6571408124693,42.5,34.5413465366758));
#1488=CARTESIAN_POINT('Origin',(91.6571408124693,42.5,43.0413465366758));
#1489=CARTESIAN_POINT('',(91.6571408124693,32.5,34.5413465366758));
#1490=CARTESIAN_POINT('Origin',(91.1881238421126,32.5,16.7091704695242));
#1491=CARTESIAN_POINT('',(91.1881238421126,42.5,8.20917046952416));
#1492=CARTESIAN_POINT('Origin',(91.1881238421126,42.5,16.7091704695242));
#1493=CARTESIAN_POINT('',(91.1881238421126,32.5,8.20917046952416));
#1494=CARTESIAN_POINT('Origin',(55.,42.5,30.));
#1495=UNCERTAINTY_MEASURE_WITH_UNIT(LENGTH_MEASURE(0.01),#1499,
'DISTANCE_ACCURACY_VALUE',
'Maximum model space distance between geometric entities at asserted c
onnectivities');
#1496=UNCERTAINTY_MEASURE_WITH_UNIT(LENGTH_MEASURE(0.01),#1499,
'DISTANCE_ACCURACY_VALUE',
'Maximum model space distance between geometric entities at asserted c
onnectivities');
#1497=(
GEOMETRIC_REPRESENTATION_CONTEXT(3)
GLOBAL_UNCERTAINTY_ASSIGNED_CONTEXT((#1495))
GLOBAL_UNIT_ASSIGNED_CONTEXT((#1499,#1501,#1502))
REPRESENTATION_CONTEXT('','3D')
);
#1498=(
GEOMETRIC_REPRESENTATION_CONTEXT(3)
GLOBAL_UNCERTAINTY_ASSIGNED_CONTEXT((#1496))
GLOBAL_UNIT_ASSIGNED_CONTEXT((#1499,#1501,#1502))
REPRESENTATION_CONTEXT('','3D')
);
#1499=(
LENGTH_UNIT()
NAMED_UNIT(*)
SI_UNIT(.MILLI.,.METRE.)
);
#1500=(
LENGTH_UNIT()
NAMED_UNIT(*)
SI_UNIT($,.METRE.)
);
#1501=(
NAMED_UNIT(*)
PLANE_ANGLE_UNIT()
SI_UNIT($,.RADIAN.)
);
#1502=(
NAMED_UNIT(*)
SI_UNIT($,.STERADIAN.)
SOLID_ANGLE_UNIT()
);
#1503=SHAPE_DEFINITION_REPRESENTATION(#1504,#1505);
#1504=PRODUCT_DEFINITION_SHAPE('',$,#1507);
#1505=SHAPE_REPRESENTATION('',(#767),#1497);
#1506=PRODUCT_DEFINITION_CONTEXT('part definition',#1511,'design');
#1507=PRODUCT_DEFINITION('2026-04-21-21-36-01-463',
'ModularNavigator_Enclosure_v1',#1508,#1506);
#1508=PRODUCT_DEFINITION_FORMATION('',$,#1513);
#1509=PRODUCT_RELATED_PRODUCT_CATEGORY('ModularNavigator_Enclosure_v1',
'ModularNavigator_Enclosure_v1',(#1513));
#1510=APPLICATION_PROTOCOL_DEFINITION('international standard',
'automotive_design',2009,#1511);
#1511=APPLICATION_CONTEXT(
'Core Data for Automotive Mechanical Design Process');
#1512=PRODUCT_CONTEXT('part definition',#1511,'mechanical');
#1513=PRODUCT('2026-04-21-21-36-01-463','ModularNavigator_Enclosure_v1',
$,(#1512));
#1514=PRESENTATION_STYLE_ASSIGNMENT((#1516));
#1515=PRESENTATION_STYLE_ASSIGNMENT((#1517));
#1516=SURFACE_STYLE_USAGE(.BOTH.,#1518);
#1517=SURFACE_STYLE_USAGE(.BOTH.,#1519);
#1518=SURFACE_SIDE_STYLE('',(#1520));
#1519=SURFACE_SIDE_STYLE('',(#1521));
#1520=SURFACE_STYLE_FILL_AREA(#1522);
#1521=SURFACE_STYLE_FILL_AREA(#1523);
#1522=FILL_AREA_STYLE('Steel - Satin',(#1524));
#1523=FILL_AREA_STYLE('ABS (White)',(#1525));
#1524=FILL_AREA_STYLE_COLOUR('Steel - Satin',#1526);
#1525=FILL_AREA_STYLE_COLOUR('ABS (White)',#1527);
#1526=COLOUR_RGB('Steel - Satin',0.627450980392157,0.627450980392157,0.627450980392157);
#1527=COLOUR_RGB('ABS (White)',0.964705882352941,0.964705882352941,0.952941176470588);
ENDSEC;
END-ISO-10303-21;
